<?xml version="1.0" encoding="iso-8859-1"?>
<!-- Generator: Adobe Illustrator 19.0.0, SVG Export Plug-In . SVG Version: 6.00 Build 0)  -->
<svg version="1.1" id="Capa_1" xmlns="http://www.w3.org/2000/svg" xmlns:xlink="http://www.w3.org/1999/xlink" x="0px" y="0px"
	 viewBox="0 0 512.002 512.002" style="enable-background:new 0 0 512.002 512.002;" xml:space="preserve">
<path style="fill:#F2BB80;" d="M448.058,255.951c-4.033-15.613-18.12-26.504-34.245-26.478l-113.678-8.826v-44.13h-88.259v44.13
	l-113.678,8.826c-16.125-0.026-30.211,10.865-34.245,26.478L33.152,379.514h445.709L448.058,255.951z"/>
<g>
	<path style="fill:#E8A864;" d="M97.14,476.599v-26.478c0-9.753-7.899-17.652-17.652-17.652s-17.652,7.899-17.652,17.652v61.781
		c1.995,0.132,4.007,0.132,6.002,0h73.432c19.496,0,35.304-15.807,35.304-35.304H97.14z"/>
	<path style="fill:#E8A864;" d="M432.525,432.47c-9.753,0-17.652,7.899-17.652,17.652v26.478H335.44
		c0,19.496,15.807,35.304,35.304,35.304h73.432c1.995,0.132,4.007,0.132,6.002,0v-61.781
		C450.177,440.369,442.277,432.47,432.525,432.47z"/>
	<path style="fill:#E8A864;" d="M105.966,476.599l17.652-97.085H33.152l-16.681,66.547c-7.299,28.322,9.744,57.201,38.066,64.5
		c2.401,0.618,4.837,1.068,7.299,1.342v-61.781c0-9.753,7.899-17.652,17.652-17.652s17.652,7.899,17.652,17.652v26.478H105.966z"/>
</g>
<path id="SVGCleanerId_0" style="fill:#E8A864;" d="M495.542,446.062l-16.681-66.547h-81.64l17.652,70.607
	c0-9.753,7.899-17.652,17.652-17.652s17.652,7.899,17.652,17.652v61.781c29.064-3.266,49.972-29.479,46.707-58.542
	C496.61,450.898,496.16,448.462,495.542,446.062z"/>
<path style="fill:#E8A864;" d="M300.136,202.996L300.136,202.996c-28.331,11.297-59.928,11.297-88.259,0l0,0v-26.478h88.259V202.996
	z"/>
<path style="fill:#4398D1;" d="M448.058,255.951c-4.033-15.613-18.12-26.504-34.245-26.478l-113.678-8.826l-44.13,44.13
	l-44.13-44.13l-113.678,8.826c-16.125-0.026-30.211,10.865-34.245,26.478L33.152,379.514h445.709L448.058,255.951z"/>
<g>
	<path style="fill:#F2BB80;" d="M97.14,450.122c0-9.753-7.899-17.652-17.652-17.652s-17.652,7.899-17.652,17.652v61.781
		c1.995,0.132,4.007,0.132,6.002,0h73.432c19.496,0,35.304-15.807,35.304-35.304H97.14C97.14,476.599,97.14,450.122,97.14,450.122z"
		/>
	<path style="fill:#F2BB80;" d="M432.525,432.47c-9.753,0-17.652,7.899-17.652,17.652v26.478H335.44
		c0,19.496,15.807,35.304,35.304,35.304h73.432c1.995,0.132,4.007,0.132,6.002,0v-61.781
		C450.177,440.369,442.277,432.47,432.525,432.47z"/>
</g>
<path style="fill:#E8A864;" d="M16.471,446.062c-7.299,28.322,9.744,57.201,38.066,64.5c2.401,0.618,4.837,1.068,7.299,1.342
	v-61.781c0-9.753,7.899-17.652,17.652-17.652s17.652,7.899,17.652,17.652v26.478h8.826l17.652-97.085H33.152L16.471,446.062z"/>
<g>
	<path id="SVGCleanerId_0_1_" style="fill:#E8A864;" d="M495.542,446.062l-16.681-66.547h-81.64l17.652,70.607
		c0-9.753,7.899-17.652,17.652-17.652s17.652,7.899,17.652,17.652v61.781c29.064-3.266,49.972-29.479,46.707-58.542
		C496.61,450.898,496.16,448.462,495.542,446.062z"/>
</g>
<path style="fill:#3E8CC7;" d="M478.861,379.514l-30.802-123.563c-4.033-15.613-18.12-26.504-34.245-26.478l-58.957-4.589
	c-56.662,80.669-134.154,127.534-200.083,154.63H478.861z"/>
<rect x="97.175" y="264.777" style="fill:#FDB62F;" width="317.733" height="211.822"/>
<rect id="SVGCleanerId_1" x="97.175" y="326.559" style="fill:#FFA230;" width="317.733" height="150.041"/>
<g>
	<rect id="SVGCleanerId_1_1_" x="97.175" y="326.559" style="fill:#FFA230;" width="317.733" height="150.041"/>
</g>
<path style="fill:#F2BB80;" d="M185.399,79.433v44.13c0,38.993,31.614,70.607,70.607,70.607s70.607-31.614,70.607-70.607v-44.13
	H185.399z"/>
<path style="fill:#EBB57C;" d="M291.31,79.433v26.478c0,38.993-31.614,70.607-70.607,70.607c-4.228-0.026-8.455-0.406-12.621-1.147
	c28.64,26.469,73.308,24.713,99.777-3.928c12.047-13.036,18.746-30.132,18.755-47.881v-44.13H291.31z"/>
<path style="fill:#4398D1;" d="M220.703,0h70.607c19.496,0,35.304,15.807,35.304,35.304v52.955l0,0H185.399l0,0V35.304
	C185.399,15.807,201.206,0,220.703,0z"/>
<path style="fill:#3E8CC7;" d="M220.703,52.955h70.607c19.496,0,35.304,15.807,35.304,35.304l0,0l0,0H185.399l0,0l0,0
	C185.399,68.763,201.206,52.955,220.703,52.955z"/>
<path style="fill:#E8A864;" d="M264.832,141.215h-17.652c-4.872,0-8.826-3.954-8.826-8.826v-44.13h17.652v35.304h8.826V141.215z"/>
<polygon style="fill:#FA962A;" points="153.538,476.599 414.873,476.599 414.873,326.559 358.475,326.559 "/>
<g>
	<rect x="370.779" y="432.47" style="fill:#F46B27;" width="17.652" height="17.652"/>
	<rect x="335.475" y="432.47" style="fill:#F46B27;" width="17.652" height="17.652"/>
</g>
<rect x="220.738" y="264.777" style="fill:#FD7B2F;" width="70.607" height="61.781"/>
<rect x="220.738" y="326.559" style="fill:#F46B27;" width="70.607" height="52.955"/>
<g>
</g>
<g>
</g>
<g>
</g>
<g>
</g>
<g>
</g>
<g>
</g>
<g>
</g>
<g>
</g>
<g>
</g>
<g>
</g>
<g>
</g>
<g>
</g>
<g>
</g>
<g>
</g>
<g>
</g>
</svg>
