<?xml version="1.0" encoding="utf-8"?>
<!-- Generator: Adobe Illustrator 16.0.0, SVG Export Plug-In . SVG Version: 6.00 Build 0)  -->
<!DOCTYPE svg PUBLIC "-//W3C//DTD SVG 1.1//EN" "http://www.w3.org/Graphics/SVG/1.1/DTD/svg11.dtd">
<svg version="1.1" id="Layer_1" xmlns="http://www.w3.org/2000/svg" xmlns:xlink="http://www.w3.org/1999/xlink" x="0px" y="0px"
	 width="500px" height="500px" viewBox="0 0 500 500" enable-background="new 0 0 500 500" xml:space="preserve">
<g>
	<polygon fill-rule="evenodd" clip-rule="evenodd" fill="#00A0E3" points="13.405,12.292 488.888,12.292 488.888,487.771 
		13.405,487.771 13.405,12.292 	"/>
	<polygon fill="#FFFFFF" points="93.158,411.898 93.158,367.915 93.785,367.915 106.102,367.915 106.095,381.717 115.702,367.915 
		116.33,367.915 130.784,367.915 115.54,387.653 134.253,411.898 133.625,411.898 118.229,411.898 106.102,393.93 106.102,411.898 
		105.474,411.898 93.158,411.898 	"/>
	<polygon fill="#FFFFFF" points="137.361,367.915 149.238,367.915 149.238,393.362 165.639,367.915 166.267,367.915 
		178.333,367.915 178.333,411.898 177.703,411.898 165.828,411.898 165.828,386.511 149.677,411.898 149.05,411.898 
		136.733,411.898 136.733,367.915 137.361,367.915 	"/>
	<polygon fill="#FFFFFF" points="188.5,411.898 188.5,367.915 189.128,367.915 201.444,367.915 201.444,411.898 200.816,411.898 
		188.5,411.898 	"/>
	<path fill="#FFFFFF" d="M211.635,367.915h21.304c3.98,0,6.891,0.708,8.734,2.137c1.843,1.422,3.058,2.991,3.646,4.708
		c0.291,0.801,0.487,1.562,0.594,2.297c0.107,0.734,0.157,1.415,0.157,2.043c0,2.264-0.678,4.187-2.043,5.782
		c-1.359,1.589-2.961,2.718-4.805,3.393v0.126c0.501,0.121,1.108,0.314,1.82,0.562c0.714,0.254,1.445,0.607,2.2,1.068
		c1.299,0.794,2.504,1.949,3.612,3.459c1.112,1.509,1.669,3.559,1.669,6.156c0,0.254-0.014,0.494-0.034,0.721
		c-0.02,0.234-0.033,0.475-0.033,0.729c-0.294,2.677-1.549,5.147-3.77,7.411s-5.739,3.393-10.557,3.393H233.5h-22.492v-43.983
		H211.635L211.635,367.915z M223.952,403.104h5.028c0.334,0,0.774-0.014,1.319-0.034c0.544-0.02,1.092-0.093,1.632-0.22
		c0.921-0.207,1.76-0.642,2.514-1.289s1.132-1.683,1.132-3.111c0-1.382-0.387-2.377-1.162-2.984
		c-0.774-0.608-1.603-1.016-2.484-1.223c-0.5-0.087-0.995-0.14-1.476-0.16c-0.48-0.02-0.888-0.026-1.225-0.026h-5.278V403.104
		L223.952,403.104z M223.952,385.256h4.524c1.799,0,3.102-0.28,3.896-0.848c0.794-0.568,1.319-1.202,1.572-1.917
		c0.083-0.254,0.137-0.494,0.157-0.721c0.02-0.233,0.03-0.454,0.03-0.661c0-1.129-0.411-2.15-1.225-3.045
		c-0.815-0.901-2.293-1.355-4.43-1.355h-4.524V385.256L223.952,385.256z"/>
	<polygon fill="#FFFFFF" points="305.634,411.898 305.634,379.987 293.405,379.987 293.405,367.915 294.032,367.915 
		330.811,367.915 330.811,379.987 318.578,379.987 318.578,411.898 317.95,411.898 306.262,411.898 305.634,411.898 	"/>
	<path fill="#FFFFFF" d="M324.868,411.898l15.647-43.983h0.628h14.957l15.581,43.983h-0.627H357.86l-2.388-7.599h-14.329
		l-2.45,7.599h-0.628H324.868L324.868,411.898z M348.309,379.1l-4.714,15.518h9.428L348.309,379.1L348.309,379.1z"/>
	<path fill="#FFFFFF" d="M373.945,411.898v-43.983h0.632h18.535c4.691,0,8.2,1.002,10.523,3.012
		c2.327,2.017,3.887,4.233,4.685,6.664c0.294,0.881,0.501,1.749,0.628,2.604c0.126,0.861,0.187,2.711,0.187,3.466
		c0,0.754-0.063,1.556-0.187,2.417c-0.127,0.854-0.351,1.723-0.628,2.604c-0.769,2.43-2.308,4.667-4.651,6.697
		c-2.347,2.029-5.865,3.045-10.557,3.045h-6.22v13.475h-0.631H373.945L373.945,411.898z M386.893,377.591v11.157h2.892
		c1.8,0,3.118-0.294,3.956-0.881c0.838-0.588,1.422-1.209,1.696-1.884c0.184-0.454,0.273-0.901,0.317-1.321
		c0.04-0.421,0.06-0.755,0.06-1.002c0-0.254-0.01-1.543-0.03-1.796c-0.023-0.254-0.053-0.501-0.093-0.755
		c-0.211-0.882-0.734-1.683-1.573-2.417c-0.838-0.734-2.283-1.102-4.333-1.102H386.893L386.893,377.591z"/>
	<path fill="#FFFFFF" d="M274.762,413.16h-0.36h-0.007l-0.351-0.007h-0.01l-0.344-0.007h-0.017
		c-7.175-0.214-12.677-2.53-16.51-6.964c-3.328-3.853-5.281-8.233-5.853-13.141l-0.003-0.021l-0.027-0.261l-0.003-0.02l-0.027-0.261
		l-0.003-0.02l-0.02-0.261c-0.027-0.287-0.044-0.567-0.061-0.854v-0.007l-0.014-0.273v-0.007l-0.007-0.28v-0.007l-0.01-0.28v-0.007
		l-0.003-0.287l0,0l-0.004-0.287l0.004-0.287v-0.007l0.003-0.28v-0.007l0.01-0.28v-0.007l0.007-0.28v-0.007l0.014-0.273v-0.014
		c0.017-0.28,0.033-0.567,0.061-0.849l0.02-0.26l0.003-0.021l0.027-0.26l0.003-0.021l0.027-0.26l0.003-0.021
		c0.571-4.914,2.524-9.295,5.853-13.147c3.829-4.427,9.335-6.751,16.51-6.958h0.017l0.344-0.007h0.01l0.351-0.006h0.007h0.36
		l0.628,0.06c1.736,0.007,3.375,0.134,4.921,0.367c5.082,0.941,8.674,3.426,11.729,7.031c0.217,0.254,0.428,0.515,0.631,0.774
		l-8.9,7.158c-0.174-0.254-0.36-0.494-0.558-0.721c-1.629-1.877-3.432-3.092-5.405-3.646l0,0l-0.094-0.026
		c-0.46-0.174-0.921-0.287-1.382-0.348c-0.264-0.04-0.521-0.06-0.768-0.073l-0.023-0.007h-0.03l0,0h-0.033h-0.007l0,0h-0.007h-0.026
		h-0.007l0,0l-0.02-0.006l0,0h-0.041l0,0h-0.026h-0.026l-0.067-0.007l0,0h-0.066h-0.023h-0.066h-0.004h-0.013h-0.023h-0.004h-0.02
		l0,0h-0.017h-0.023h-0.004h-0.083h-0.004c-0.424,0.007-0.857,0.047-1.302,0.12c-0.351,0.066-0.701,0.146-1.042,0.26h-0.02
		l-0.023,0.014l-0.02,0.007h-0.004l-0.02,0.007l0,0l-0.021,0.007h-0.003l-0.021,0.006l0,0l-0.023,0.007l0,0l-0.02,0.007l0,0
		l-0.023,0.007l0,0l-0.021,0.007l0,0l-0.023,0.007l-0.02,0.006l-0.023,0.007l-0.021,0.014l-0.023,0.007l-0.02,0.007l-0.023,0.006
		c-1.927,0.588-3.699,1.83-5.312,3.74c-1.613,1.902-2.417,4.721-2.417,8.453c0,3.726,0.804,6.543,2.417,8.453
		c1.612,1.903,3.385,3.151,5.312,3.739l0.023,0.007l0.02,0.007l0.023,0.007l0.021,0.006l0.023,0.007l0.02,0.007l0.023,0.014l0,0
		l0.021,0.007l0,0l0.023,0.006l0,0l0.02,0.007l0,0l0.023,0.007l0,0l0.021,0.007h0.003l0.021,0.007l0,0l0.02,0.007h0.004l0.02,0.006
		l0,0l0.021,0.007h0.003l0.02,0.014h0.004c0.341,0.101,0.688,0.187,1.038,0.247c0.421,0.073,0.835,0.113,1.235,0.127h0.007h0.083
		h0.004h0.017h0.003h0.017h0.007h0.017h0.004h0.02h0.004h0.017l0,0h0.02h0.004h0.017h0.007h0.013h0.004h0.017h0.003h0.017h0.004
		h0.017h0.003h0.063h0.027l0.066-0.007l0,0h0.04l0,0h0.02l0,0h0.007h0.027h0.007l0,0h0.006l0.027-0.007h0.003h0.003h0.004h0.03
		h0.007l0,0h0.006l0.074-0.007h0.003c0.244-0.013,0.501-0.04,0.758-0.073c0.461-0.066,0.922-0.18,1.382-0.347l0.094-0.027l0,0
		c1.974-0.554,3.776-1.776,5.405-3.652c0.197-0.227,0.384-0.468,0.558-0.721l8.9,7.157c-0.203,0.261-0.414,0.521-0.631,0.781
		c-3.048,3.593-6.63,6.077-11.691,7.024c-1.56,0.241-3.209,0.361-4.958,0.368L274.762,413.16L274.762,413.16z"/>
	<path fill-rule="evenodd" clip-rule="evenodd" fill="#FFCA05" d="M180.56,339.677c6.356,0,11.513,5.155,11.513,11.512
		S186.916,362.7,180.56,362.7c-6.357,0-11.512-5.155-11.512-11.512S174.203,339.677,180.56,339.677L180.56,339.677z
		 M209.383,339.677c6.357,0,11.512,5.155,11.512,11.512S215.74,362.7,209.383,362.7c-6.356,0-11.511-5.155-11.511-11.512
		S203.027,339.677,209.383,339.677L209.383,339.677z"/>
	<path fill-rule="evenodd" clip-rule="evenodd" fill="#FFFFFF" d="M251.992,86.907L251.992,86.907
		c8.748,0,15.905,7.156,15.905,15.904v59.122c0,8.748-7.157,15.904-15.905,15.904l0,0c-8.747,0-15.901-7.156-15.901-15.904v-59.122
		C236.091,94.063,243.246,86.907,251.992,86.907L251.992,86.907z"/>
	<path fill-rule="evenodd" clip-rule="evenodd" fill="#FFFFFF" d="M131.904,174.158L131.904,174.158
		c2.703-8.32,11.72-12.914,20.04-10.211l56.227,18.271c8.32,2.703,12.916,11.722,10.211,20.042l0,0
		c-2.703,8.32-11.72,12.914-20.039,10.209L142.115,194.2C133.795,191.496,129.202,182.478,131.904,174.158L131.904,174.158z"/>
	<path fill-rule="evenodd" clip-rule="evenodd" fill="#FFFFFF" d="M177.777,315.332L177.777,315.332
		c-7.076-5.142-8.661-15.138-3.518-22.216l34.75-47.829c5.141-7.078,15.137-8.66,22.213-3.519l0,0
		c7.078,5.142,8.66,15.138,3.519,22.215l-34.75,47.829C194.851,318.891,184.853,320.474,177.777,315.332L177.777,315.332z"/>
	<path fill-rule="evenodd" clip-rule="evenodd" fill="#FFFFFF" d="M326.217,315.332L326.217,315.332
		c-7.078,5.142-17.074,3.559-22.215-3.52l-34.752-47.829c-5.142-7.077-3.556-17.073,3.519-22.215l0,0
		c7.078-5.141,17.074-3.559,22.216,3.519l34.751,47.829C334.877,300.194,333.295,310.19,326.217,315.332L326.217,315.332z"/>
	<path fill-rule="evenodd" clip-rule="evenodd" fill="#FFFFFF" d="M372.086,174.155L372.086,174.155
		c2.701,8.32-1.893,17.337-10.213,20.039l-56.226,18.269c-8.319,2.704-17.337-1.89-20.042-10.209l0,0
		c-2.704-8.32,1.89-17.336,10.21-20.039l56.229-18.271C360.364,161.241,369.382,165.837,372.086,174.155L372.086,174.155z"/>
</g>
</svg>
