<?xml version="1.0" encoding="utf-8"?>
<!-- Generator: Adobe Illustrator 16.0.0, SVG Export Plug-In . SVG Version: 6.00 Build 0)  -->
<!DOCTYPE svg PUBLIC "-//W3C//DTD SVG 1.1//EN" "http://www.w3.org/Graphics/SVG/1.1/DTD/svg11.dtd">
<svg version="1.1" id="Layer_1" xmlns="http://www.w3.org/2000/svg" xmlns:xlink="http://www.w3.org/1999/xlink" x="0px" y="0px"
	 width="960px" height="300px" viewBox="0 0 960 300" enable-background="new 0 0 960 300" xml:space="preserve">
<rect id="squad" x="808" y="90" fill="#F7F9F7" width="132" height="133"/>
<g>
	<g>
		<g>
			<g>
				<defs>
					<rect id="SVGID_1_" x="-60.867" y="-57.049" width="1050.121" height="426.073"/>
				</defs>
				<clipPath id="SVGID_2_">
					<use xlink:href="#SVGID_1_"  overflow="visible"/>
				</clipPath>
				<path clip-path="url(#SVGID_2_)" fill="#001600" d="M911.467,77.755h-74.023c-22.768,0-41.289,18.524-41.289,41.292v74.022
					c0,22.769,18.521,41.292,41.289,41.292h74.023c22.77,0,41.293-18.523,41.293-41.292v-74.022
					C952.76,96.279,934.236,77.755,911.467,77.755 M937.467,193.069c0,14.335-11.664,25.999-26,25.999h-74.02
					c-14.338,0-26-11.664-26-25.999v-74.022c0-14.336,11.662-25.999,26-25.999h74.02c14.336,0,26,11.663,26,25.999V193.069z"/>
			</g>
			<g>
				<defs>
					<rect id="SVGID_3_" x="-60.867" y="-57.049" width="1050.121" height="426.073"/>
				</defs>
				<clipPath id="SVGID_4_">
					<use xlink:href="#SVGID_3_"  overflow="visible"/>
				</clipPath>
				<path clip-path="url(#SVGID_4_)" fill="#F58225" d="M908.049,166.508c-4.461,14.309-17.834,24.727-33.592,24.727
					c-23.367,0-40.736-22.729-33.588-45.629c4.457-14.307,17.832-24.722,33.588-24.722
					C898.057,120.883,915.111,143.863,908.049,166.508"/>
			</g>
			<g>
				<defs>
					<rect id="SVGID_5_" x="-60.867" y="-57.049" width="1050.121" height="426.073"/>
				</defs>
				<clipPath id="SVGID_6_">
					<use xlink:href="#SVGID_5_"  overflow="visible"/>
				</clipPath>
				<path clip-path="url(#SVGID_6_)" fill="#248D44" d="M909.623,156.697c-0.059,3.412-0.605,6.701-1.578,9.811
					c-8.697,1.344-13.01-3.044-16.736-7.512c-2.516-3.018-3.85-4.467-6.676-4.467s-4.158,1.449-6.674,4.467
					c-2.734,3.277-6.479,7.769-13.729,7.769c-7.254,0-10.998-4.491-13.732-7.769c-3.152-3.781-4.736-5.682-10.982-3.662
					c-0.094,0.029-0.176,0.053-0.266,0.077c0.059-3.41,0.648-6.7,1.617-9.808c9.268-1.432,13.639,3.863,16.688,7.52
					c2.514,3.016,3.848,4.465,6.676,4.465c2.824,0,4.16-1.449,6.672-4.465c2.736-3.28,6.48-7.77,13.73-7.77
					c7.252,0,10.998,4.49,13.73,7.77C901.523,156.912,903.18,158.894,909.623,156.697"/>
			</g>
			<g>
				<defs>
					<rect id="SVGID_7_" x="-60.867" y="-57.049" width="1050.121" height="426.073"/>
				</defs>
				<clipPath id="SVGID_8_">
					<use xlink:href="#SVGID_7_"  overflow="visible"/>
				</clipPath>
				<path clip-path="url(#SVGID_8_)" fill="#E1543F" d="M874.432,120.883v70.352c15.771,0,29.152-10.418,33.613-24.729
					C915.115,143.863,898.049,120.883,874.432,120.883"/>
			</g>
			<g>
				<defs>
					<rect id="SVGID_9_" x="-60.867" y="-57.049" width="1050.121" height="426.073"/>
				</defs>
				<clipPath id="SVGID_10_">
					<use xlink:href="#SVGID_9_"  overflow="visible"/>
				</clipPath>
				<path clip-path="url(#SVGID_10_)" fill="#F4EDE7" d="M898.396,153.123c-2.732-3.28-6.479-7.77-13.729-7.77
					c-4.6,0-7.82,1.805-10.236,3.963v13.482c1.393-1.244,2.561-2.604,3.561-3.803c2.516-3.018,3.85-4.467,6.676-4.467
					c2.824,0,4.158,1.449,6.676,4.467c3.725,4.468,8.035,8.857,16.734,7.512c0.971-3.109,1.52-6.398,1.578-9.811
					C903.213,158.894,901.555,156.912,898.396,153.123"/>
			</g>
			<g>
				<defs>
					<rect id="SVGID_11_" x="-60.867" y="-57.049" width="1050.121" height="426.073"/>
				</defs>
				<clipPath id="SVGID_12_">
					<use xlink:href="#SVGID_11_"  overflow="visible"/>
				</clipPath>
				<path clip-path="url(#SVGID_12_)" fill="#FFFFFF" d="M850.477,158.984c2.732,3.279,6.479,7.77,13.73,7.77
					c4.6,0,7.818-1.807,10.234-3.965v-13.481c-1.393,1.245-2.561,2.604-3.559,3.804c-2.516,3.018-3.852,4.466-6.676,4.466
					s-4.158-1.448-6.676-4.466c-3.727-4.469-8.037-8.857-16.738-7.512c-0.969,3.107-1.518,6.398-1.574,9.809
					C845.662,153.213,847.318,155.195,850.477,158.984"/>
			</g>
		</g>
		<polygon fill="#001200" points="21.165,77.792 53.759,42.741 917.072,71.852 929.721,77.789 		"/>
		<polygon fill="#E2E3E4" points="58.059,47.337 50.402,54.969 688.727,66.564 		"/>
		<polygon fill="#001200" points="21.165,234.181 53.759,269.23 917.072,240.121 929.721,234.184 		"/>
		<polygon fill="#E2E3E4" points="58.059,264.636 50.402,257.004 688.727,245.408 		"/>
		<g>
			<g>
				<defs>
					<rect id="SVGID_13_" x="-60.867" y="-57.049" width="1050.121" height="426.073"/>
				</defs>
				<clipPath id="SVGID_14_">
					<use xlink:href="#SVGID_13_"  overflow="visible"/>
				</clipPath>
				<path clip-path="url(#SVGID_14_)" fill="#F7F9F7" d="M53.763,202.15l0.085-10.387c-24.6-1.529-40.304-14.945-40.123-37.045
					c0.181-22.102,16.103-35.257,40.726-36.384l0.084-10.387l20.807,0.171l-0.085,10.387c24.241,1.77,39.708,15.061,39.529,37.043
					c-0.181,21.979-15.864,35.016-40.132,36.387l-0.084,10.387L53.763,202.15z M53.998,173.529l0.304-36.958
					c-14.874,1.327-18.515,10.357-18.581,18.327C35.656,162.869,39.149,171.957,53.998,173.529 M74.806,173.699
					c14.281-1.574,17.922-10.482,17.986-18.332c0.064-7.85-3.43-16.816-17.683-18.625L74.806,173.699z"/>
			</g>
			<g>
				<defs>
					<rect id="SVGID_15_" x="-60.867" y="-57.049" width="1050.121" height="426.073"/>
				</defs>
				<clipPath id="SVGID_16_">
					<use xlink:href="#SVGID_15_"  overflow="visible"/>
				</clipPath>
				<path clip-path="url(#SVGID_16_)" fill="#F7F9F7" d="M110.277,197.784l33.39-84.272l23.779,0.195l32.003,84.809l-22.591-0.185
					l-4.647-13.323l-34.479-0.285l-4.866,13.247L110.277,197.784z M144.42,166.66l21.401,0.177l-8.359-24.466
					c-0.697-2.059-1.394-4.118-2.07-8.593c-0.751,4.462-1.48,6.511-2.211,8.558L144.42,166.66z"/>
			</g>
			<g>
				<defs>
					<rect id="SVGID_17_" x="-60.867" y="-57.049" width="1050.121" height="426.073"/>
				</defs>
				<clipPath id="SVGID_18_">
					<use xlink:href="#SVGID_17_"  overflow="visible"/>
				</clipPath>
				<path clip-path="url(#SVGID_18_)" fill="#F7F9F7" d="M257.942,198.996l0.284-34.539c0.039-4.59,0.201-9.904,0.591-13.885
					l-32.977,48.16l-20.806-0.17l0.694-84.541l21.996,0.181l-0.284,34.542c-0.038,4.709-0.201,10.023-0.59,14.004l32.976-48.282
					l20.806,0.17l-0.694,84.542L257.942,198.996z M262.884,104.224l0.125-15.218c-6.453,3.934-12.882,4.967-19.659,4.912
					c-6.778-0.056-13.19-1.196-19.577-5.233l-0.124,15.217c5.083,3.544,10.773,5.644,19.572,5.716
					C252.018,109.691,257.743,107.683,262.884,104.224"/>
			</g>
			<g>
				<defs>
					<rect id="SVGID_19_" x="-60.867" y="-57.049" width="1050.121" height="426.073"/>
				</defs>
				<clipPath id="SVGID_20_">
					<use xlink:href="#SVGID_19_"  overflow="visible"/>
				</clipPath>
				<polygon clip-path="url(#SVGID_20_)" fill="#F7F9F7" points="368.851,115.361 368.157,199.902 346.162,199.721 346.425,167.475 
					315.514,167.221 315.249,199.467 293.253,199.286 293.947,114.745 315.943,114.926 315.676,147.292 346.589,147.547 
					346.855,115.18 				"/>
			</g>
			<g>
				<defs>
					
						<rect id="SVGID_21_" x="-133.52" y="-126.626" transform="matrix(-0.0082 1 -1 -0.0082 481.1819 -304.4182)" width="1050.155" height="426.087"/>
				</defs>
				<clipPath id="SVGID_22_">
					<use xlink:href="#SVGID_21_"  overflow="visible"/>
				</clipPath>
				
					<rect x="350.543" y="146.813" transform="matrix(-0.0082 1 -1 -0.0082 553.8391 -233.6988)" clip-path="url(#SVGID_22_)" fill="#F7F9F7" width="84.546" height="21.998"/>
			</g>
			<g>
				<defs>
					<rect id="SVGID_23_" x="-60.867" y="-57.049" width="1050.121" height="426.073"/>
				</defs>
				<clipPath id="SVGID_24_">
					<use xlink:href="#SVGID_23_"  overflow="visible"/>
				</clipPath>
				<path clip-path="url(#SVGID_24_)" fill="#248D44" d="M503.271,174.919c0,7.316-2.449,13.563-7.348,18.742
					s-10.807,7.769-17.724,7.768l-50.726-0.005l0.002-19.729l50.725,0.005c1.787,0,3.303-0.657,4.547-1.973
					c1.242-1.314,1.865-2.917,1.867-4.809c0-1.89-0.625-3.493-1.867-4.809c-1.242-1.314-2.759-1.973-4.547-1.973l-25.653-0.003
					c-6.921-0.001-12.827-2.591-17.726-7.769c-4.896-5.182-7.344-11.427-7.344-18.744c0.001-7.315,2.45-13.563,7.349-18.741
					c4.896-5.18,10.805-7.769,17.724-7.768l50.725,0.003l-0.002,19.73l-50.724-0.004c-1.788,0-3.306,0.658-4.548,1.973
					c-1.244,1.315-1.866,2.918-1.866,4.808c0,1.894,0.621,3.496,1.866,4.81c1.242,1.316,2.758,1.973,4.548,1.973l25.653,0.003
					c6.918,0.001,12.827,2.591,17.725,7.77C500.822,161.355,503.271,167.602,503.271,174.919"/>
			</g>
			<g>
				<defs>
					<rect id="SVGID_25_" x="-60.867" y="-57.049" width="1050.121" height="426.073"/>
				</defs>
				<clipPath id="SVGID_26_">
					<use xlink:href="#SVGID_25_"  overflow="visible"/>
				</clipPath>
				<path clip-path="url(#SVGID_26_)" fill="#248D44" d="M583.73,158.279c0,11.672-3.656,21.783-10.963,30.332
					c-7.311,8.551-16.287,12.823-26.938,12.822c-10.729-0.001-19.727-4.275-26.992-12.827c-7.271-8.549-10.902-18.66-10.902-30.334
					l0.004-43.157l18.656,0l-0.002,43.16c0,6.246,1.824,11.714,5.48,16.399c3.65,4.687,8.238,7.029,13.758,7.029
					c5.598,0.001,10.203-2.341,13.818-7.026s5.424-10.152,5.424-16.4l0.002-43.157l18.656,0.001L583.73,158.279z"/>
			</g>
			<g>
				<defs>
					<rect id="SVGID_27_" x="-60.867" y="-57.049" width="1050.121" height="426.073"/>
				</defs>
				<clipPath id="SVGID_28_">
					<use xlink:href="#SVGID_27_"  overflow="visible"/>
				</clipPath>
				<path clip-path="url(#SVGID_28_)" fill="#248D44" d="M664.189,174.932c-0.002,7.317-2.451,13.564-7.35,18.743
					c-4.898,5.177-10.805,7.767-17.723,7.767l-50.727-0.004l0.002-19.73l50.725,0.005c1.787,0,3.303-0.657,4.547-1.974
					c1.244-1.312,1.867-2.916,1.867-4.809c0-1.889-0.623-3.492-1.865-4.809c-1.246-1.313-2.762-1.973-4.547-1.973l-25.654-0.001
					c-6.922-0.001-12.828-2.591-17.725-7.771s-7.346-11.426-7.346-18.742c0.002-7.316,2.451-13.564,7.348-18.742
					c4.896-5.18,10.805-7.768,17.725-7.767l50.727,0.002l-0.002,19.729l-50.725-0.004c-1.789,0-3.305,0.66-4.547,1.973
					c-1.246,1.316-1.867,2.919-1.867,4.809c0,1.893,0.621,3.494,1.865,4.809c1.242,1.316,2.758,1.975,4.547,1.975l25.654,0.002
					c6.918,0,12.826,2.591,17.725,7.771C661.74,161.367,664.189,167.615,664.189,174.932"/>
			</g>
			<g>
				<defs>
					<rect id="SVGID_29_" x="-60.867" y="-57.049" width="1050.121" height="426.073"/>
				</defs>
				<clipPath id="SVGID_30_">
					<use xlink:href="#SVGID_29_"  overflow="visible"/>
				</clipPath>
				<polygon clip-path="url(#SVGID_30_)" fill="#248D44" points="742.9,115.133 742.895,201.449 721.322,201.447 721.324,168.523 
					691.006,168.521 691.004,201.445 669.432,201.443 669.438,115.126 691.012,115.128 691.008,148.176 721.326,148.178 
					721.328,115.132 				"/>
			</g>
			<g>
				<defs>
					<rect id="SVGID_31_" x="-60.867" y="-57.049" width="1050.121" height="426.073"/>
				</defs>
				<clipPath id="SVGID_32_">
					<use xlink:href="#SVGID_31_"  overflow="visible"/>
				</clipPath>
				<rect x="750.709" y="115.136" clip-path="url(#SVGID_32_)" fill="#248D44" width="18.658" height="86.314"/>
			</g>
			<g>
				<defs>
					<rect id="SVGID_33_" x="-60.867" y="-57.049" width="1050.121" height="426.073"/>
				</defs>
				<clipPath id="SVGID_34_">
					<use xlink:href="#SVGID_33_"  overflow="visible"/>
				</clipPath>
				<path clip-path="url(#SVGID_34_)" fill="#FFFFFF" d="M487.225,110.913c1.502-3.09,2.648,0,2.648,0
					S485.723,114.004,487.225,110.913"/>
			</g>
		</g>
	</g>
	<rect id="_x3C_Slice_x3E_" x="7.671" y="288.688" fill="none" width="980.69" height="106.771"/>
</g>
</svg>
