<?xml version="1.0" encoding="utf-8"?>
<!-- Generator: Adobe Illustrator 16.0.0, SVG Export Plug-In . SVG Version: 6.00 Build 0)  -->
<!DOCTYPE svg PUBLIC "-//W3C//DTD SVG 1.1//EN" "http://www.w3.org/Graphics/SVG/1.1/DTD/svg11.dtd">
<svg version="1.1" id="Layer_1" xmlns="http://www.w3.org/2000/svg" xmlns:xlink="http://www.w3.org/1999/xlink" x="0px" y="0px"
	 width="1587.95px" height="644.287px" viewBox="0 0 1587.95 644.287" enable-background="new 0 0 1587.95 644.287"
	 xml:space="preserve">
<rect x="1319.505" y="217.467" fill="#EBEFF1" stroke="#000000" stroke-miterlimit="10" width="193.079" height="206.67"/>
<g>
	<defs>
		<rect id="SVGID_1_" width="1587.948" height="644.287"/>
	</defs>
	<clipPath id="SVGID_2_">
		<use xlink:href="#SVGID_1_"  overflow="visible"/>
	</clipPath>
	<path clip-path="url(#SVGID_2_)" fill="#001600" d="M1470.32,203.845h-111.932c-34.431,0-62.441,28.011-62.441,62.441v111.932
		c0,34.43,28.011,62.441,62.441,62.441h111.932c34.43,0,62.441-28.012,62.441-62.441V266.286
		C1532.762,231.856,1504.75,203.845,1470.32,203.845 M1509.635,378.218c0,21.678-17.637,39.315-39.314,39.315h-111.932
		c-21.679,0-39.315-17.638-39.315-39.315V266.286c0-21.678,17.637-39.315,39.315-39.315h111.932
		c21.678,0,39.314,17.637,39.314,39.315V378.218z"/>
	<path clip-path="url(#SVGID_2_)" fill="#F58225" d="M1465.149,338.052c-6.744,21.637-26.966,37.392-50.795,37.392
		c-35.335,0-61.596-34.37-50.79-69c6.742-21.633,26.965-37.382,50.79-37.382C1450.041,269.061,1475.832,303.811,1465.149,338.052"/>
	<path clip-path="url(#SVGID_2_)" fill="#248D44" d="M1467.531,323.219c-0.088,5.157-0.916,10.134-2.384,14.833
		c-13.152,2.034-19.676-4.602-25.308-11.359c-3.805-4.561-5.822-6.753-10.095-6.753s-6.29,2.192-10.094,6.753
		c-4.134,4.958-9.794,11.748-20.759,11.748c-10.97,0-16.63-6.79-20.763-11.748c-4.771-5.717-7.165-8.59-16.61-5.537
		c-0.14,0.046-0.263,0.08-0.4,0.117c0.088-5.157,0.978-10.131,2.445-14.83c14.014-2.165,20.624,5.842,25.233,11.369
		c3.8,4.562,5.818,6.753,10.095,6.753c4.272,0,6.291-2.191,10.09-6.753c4.138-4.958,9.799-11.748,20.763-11.748
		c10.965,0,16.63,6.79,20.763,11.748C1455.284,323.543,1457.788,326.54,1467.531,323.219"/>
	<path clip-path="url(#SVGID_2_)" fill="#E1543F" d="M1414.319,269.061v106.382c23.845,0,44.08-15.754,50.827-37.392
		C1475.838,303.811,1450.03,269.061,1414.319,269.061"/>
	<path clip-path="url(#SVGID_2_)" fill="#F4EDE7" d="M1450.558,317.812c-4.133-4.958-9.798-11.748-20.763-11.748
		c-6.955,0-11.824,2.73-15.476,5.994v20.387c2.104-1.881,3.87-3.938,5.381-5.752c3.804-4.561,5.822-6.753,10.095-6.753
		c4.271,0,6.289,2.192,10.095,6.753c5.632,6.758,12.153,13.394,25.308,11.359c1.467-4.699,2.295-9.676,2.383-14.833
		C1457.838,326.54,1455.333,323.543,1450.558,317.812"/>
	<path clip-path="url(#SVGID_2_)" fill="#FFFFFF" d="M1378.092,326.677c4.133,4.958,9.799,11.748,20.764,11.748
		c6.955,0,11.823-2.73,15.475-5.994v-20.387c-2.104,1.881-3.87,3.939-5.381,5.752c-3.804,4.561-5.822,6.753-10.094,6.753
		c-4.272,0-6.29-2.192-10.096-6.753c-5.632-6.758-12.153-13.393-25.308-11.359c-1.467,4.699-2.295,9.676-2.383,14.833
		C1370.813,317.949,1373.316,320.946,1378.092,326.677"/>
</g>
<polygon fill="#001200" points="124.046,203.901 173.332,150.899 1478.798,194.918 1497.924,203.896 "/>
<polygon fill="#E2E3E4" points="179.834,157.849 168.256,169.389 1133.501,186.924 "/>
<polygon fill="#001200" points="124.046,440.385 173.332,493.387 1478.798,449.368 1497.924,440.391 "/>
<polygon fill="#E2E3E4" points="179.834,486.438 168.256,474.898 1133.501,457.362 "/>
<g>
	<defs>
		<rect id="SVGID_3_" width="1587.948" height="644.287"/>
	</defs>
	<clipPath id="SVGID_4_">
		<use xlink:href="#SVGID_3_"  overflow="visible"/>
	</clipPath>
	<path clip-path="url(#SVGID_4_)" fill="#202A20" d="M173.339,391.951l0.129-15.707c-37.199-2.313-60.946-22.599-60.672-56.019
		c0.274-33.421,24.351-53.314,61.584-55.017l0.129-15.707l31.463,0.259l-0.129,15.707c36.657,2.675,60.046,22.774,59.774,56.013
		c-0.273,33.237-23.989,52.95-60.686,55.023l-0.128,15.707L173.339,391.951z M173.695,348.669l0.458-55.884
		c-22.491,2.007-27.997,15.661-28.096,27.714S151.24,346.293,173.695,348.669 M205.158,348.928
		c21.595-2.38,27.101-15.85,27.198-27.72c0.097-11.871-5.186-25.43-26.74-28.164L205.158,348.928z"/>
	<path clip-path="url(#SVGID_4_)" fill="#202A20" d="M258.796,385.348l50.492-127.433l35.957,0.295l48.393,128.245l-34.16-0.28
		l-7.027-20.148l-52.138-0.429l-7.357,20.03L258.796,385.348z M310.426,338.285l32.362,0.266l-12.641-36.997
		c-1.054-3.113-2.107-6.227-3.13-12.993c-1.135,6.748-2.238,9.845-3.343,12.94L310.426,338.285z"/>
	<path clip-path="url(#SVGID_4_)" fill="#202A20" d="M482.09,387.182l0.43-52.23c0.057-6.94,0.302-14.976,0.891-20.997
		l-49.864,72.828l-31.463-0.259l1.05-127.838l33.261,0.274l-0.429,52.231c-0.058,7.122-0.303,15.157-0.892,21.178l49.864-73.011
		l31.463,0.258l-1.05,127.839L482.09,387.182z M489.562,243.87l0.188-23.011c-9.758,5.948-19.479,7.511-29.727,7.427
		c-10.249-0.084-19.944-1.808-29.603-7.913l-0.188,23.011c7.686,5.359,16.291,8.534,29.596,8.643
		C473.13,252.137,481.787,249.102,489.562,243.87"/>
	<polygon clip-path="url(#SVGID_4_)" fill="#202A20" points="649.801,260.711 648.751,388.55 615.49,388.275 615.891,339.515 
		569.146,339.131 568.745,387.893 535.485,387.619 536.534,259.78 569.795,260.054 569.394,308.997 616.139,309.381 616.54,260.438 
			"/>
	
		<rect x="622.117" y="308.301" transform="matrix(0.0082 -1 1 0.0082 355.482 1008.2778)" clip-path="url(#SVGID_4_)" fill="#202A20" width="127.843" height="33.262"/>
	<path clip-path="url(#SVGID_4_)" fill="#248D44" d="M853.065,350.772c-0.001,11.064-3.704,20.511-11.11,28.341
		c-7.407,7.831-16.342,11.746-26.803,11.745l-76.703-0.006l0.002-29.834l76.703,0.006c2.702,0,4.995-0.993,6.877-2.982
		c1.879-1.986,2.821-4.411,2.822-7.271c0-2.858-0.942-5.282-2.821-7.271c-1.882-1.989-4.175-2.984-6.877-2.984l-38.793-0.003
		c-10.464-0.002-19.396-3.919-26.801-11.749c-7.405-7.833-11.107-17.278-11.106-28.343c0.001-11.062,3.704-20.51,11.11-28.34
		c7.406-7.832,16.339-11.746,26.803-11.745l76.703,0.005l-0.002,29.833l-76.703-0.005c-2.705,0-4.998,0.996-6.877,2.982
		c-1.882,1.99-2.822,4.414-2.822,7.272c0,2.861,0.939,5.285,2.821,7.272c1.879,1.99,4.172,2.984,6.877,2.984l38.793,0.003
		c10.461,0.001,19.395,3.918,26.801,11.75C849.364,330.262,853.065,339.709,853.065,350.772"/>
	<path clip-path="url(#SVGID_4_)" fill="#248D44" d="M974.731,325.61c-0.001,17.651-5.528,32.941-16.577,45.868
		c-11.053,12.929-24.63,19.39-40.734,19.388c-16.222-0.001-29.83-6.464-40.818-19.396c-10.992-12.927-16.484-28.217-16.483-45.869
		l0.005-65.261l28.212,0.002l-0.005,65.261c0,9.447,2.76,17.714,8.287,24.8c5.522,7.086,12.458,10.629,20.805,10.629
		c8.465,0.001,15.43-3.54,20.896-10.626c5.467-7.084,8.201-15.351,8.201-24.798l0.005-65.261l28.212,0.002L974.731,325.61z"/>
	<path clip-path="url(#SVGID_4_)" fill="#248D44" d="M1096.396,350.792c-0.001,11.064-3.704,20.511-11.11,28.341
		c-7.408,7.831-16.342,11.746-26.803,11.745l-76.703-0.006l0.002-29.834l76.703,0.006c2.702,0,4.995-0.993,6.877-2.983
		c1.879-1.985,2.821-4.41,2.822-7.271c0-2.858-0.942-5.282-2.821-7.272c-1.882-1.987-4.175-2.983-6.877-2.983l-38.793-0.003
		c-10.464-0.001-19.396-3.918-26.801-11.749c-7.405-7.833-11.107-17.278-11.106-28.343c0.001-11.062,3.704-20.51,11.11-28.34
		c7.406-7.832,16.339-11.746,26.803-11.745l76.703,0.005l-0.002,29.833l-76.703-0.005c-2.705,0-4.998,0.996-6.877,2.982
		c-1.882,1.99-2.822,4.414-2.822,7.272c0,2.861,0.939,5.285,2.821,7.272c1.879,1.99,4.172,2.984,6.877,2.984l38.793,0.003
		c10.461,0.001,19.395,3.918,26.801,11.75C1092.694,330.281,1096.396,339.729,1096.396,350.792"/>
	<polygon clip-path="url(#SVGID_4_)" fill="#248D44" points="1215.422,260.367 1215.413,390.89 1182.792,390.887 1182.795,341.102 
		1136.949,341.098 1136.945,390.884 1104.325,390.882 1104.334,260.358 1136.955,260.36 1136.952,310.332 1182.798,310.336 
		1182.801,260.364 	"/>
	<rect x="1227.231" y="260.371" clip-path="url(#SVGID_4_)" fill="#248D44" width="28.212" height="130.521"/>
	<path clip-path="url(#SVGID_4_)" fill="#FFFFFF" d="M828.8,253.985c2.271-4.673,4.005,0,4.005,0S826.53,258.659,828.8,253.985"/>
</g>
</svg>
