<?xml version="1.0" encoding="iso-8859-1"?>
<!-- Generator: Adobe Illustrator 19.0.0, SVG Export Plug-In . SVG Version: 6.00 Build 0)  -->
<svg xmlns="http://www.w3.org/2000/svg" xmlns:xlink="http://www.w3.org/1999/xlink" version="1.1" id="Capa_1" x="0px" y="0px" viewBox="0 0 512 512" style="enable-background:new 0 0 512 512;" xml:space="preserve" width="512px" height="512px">
<g>
	<g>
		<g>
			<path d="M469.333,64H42.667C19.146,64,0,83.135,0,106.667v298.667C0,428.865,19.146,448,42.667,448h426.667     C492.854,448,512,428.865,512,405.333V106.667C512,83.135,492.854,64,469.333,64z M245.333,426.667H42.667     c-11.771,0-21.333-9.573-21.333-21.333V106.667c0-11.76,9.563-21.333,21.333-21.333h202.667V426.667z M490.667,405.333     c0,11.76-9.563,21.333-21.333,21.333H266.667V85.333h202.667c11.771,0,21.333,9.573,21.333,21.333V405.333z" fill="#FFFFFF"/>
			<path d="M202.667,277.333h-128C68.771,277.333,64,282.104,64,288s4.771,10.667,10.667,10.667h128     c5.896,0,10.667-4.771,10.667-10.667S208.563,277.333,202.667,277.333z" fill="#FFFFFF"/>
			<path d="M202.667,341.333h-128C68.771,341.333,64,346.104,64,352c0,5.896,4.771,10.667,10.667,10.667h128     c5.896,0,10.667-4.771,10.667-10.667C213.333,346.104,208.563,341.333,202.667,341.333z" fill="#FFFFFF"/>
			<path d="M437.333,149.333h-128c-5.896,0-10.667,4.771-10.667,10.667s4.771,10.667,10.667,10.667h128     c5.896,0,10.667-4.771,10.667-10.667S443.229,149.333,437.333,149.333z" fill="#FFFFFF"/>
			<path d="M437.333,213.333h-128c-5.896,0-10.667,4.771-10.667,10.667s4.771,10.667,10.667,10.667h128     c5.896,0,10.667-4.771,10.667-10.667S443.229,213.333,437.333,213.333z" fill="#FFFFFF"/>
			<path d="M437.333,277.333h-128c-5.896,0-10.667,4.771-10.667,10.667s4.771,10.667,10.667,10.667h128     c5.896,0,10.667-4.771,10.667-10.667S443.229,277.333,437.333,277.333z" fill="#FFFFFF"/>
			<path d="M437.333,341.333h-128c-5.896,0-10.667,4.771-10.667,10.667c0,5.896,4.771,10.667,10.667,10.667h128     c5.896,0,10.667-4.771,10.667-10.667C448,346.104,443.229,341.333,437.333,341.333z" fill="#FFFFFF"/>
			<path d="M64,234.667h149.333c5.896,0,10.667-4.771,10.667-10.667s-4.771-10.667-10.667-10.667h-1.078     c-4.225-29.143-25.186-52.661-52.918-60.724c0.18-1.111,0.663-2.115,0.663-3.276c0-11.76-9.563-21.333-21.333-21.333     c-11.771,0-21.333,9.573-21.333,21.333c0,1.161,0.483,2.165,0.663,3.276c-27.732,8.063-48.693,31.581-52.918,60.724H64     c-5.896,0-10.667,4.771-10.667,10.667S58.104,234.667,64,234.667z M138.667,170.667c25.763,0,47.299,18.353,52.255,42.667H86.411     C91.367,189.02,112.904,170.667,138.667,170.667z" fill="#FFFFFF"/>
		</g>
	</g>
</g>
<g>
</g>
<g>
</g>
<g>
</g>
<g>
</g>
<g>
</g>
<g>
</g>
<g>
</g>
<g>
</g>
<g>
</g>
<g>
</g>
<g>
</g>
<g>
</g>
<g>
</g>
<g>
</g>
<g>
</g>
</svg>
