<?xml version="1.0" encoding="iso-8859-1"?>
<!-- Generator: Adobe Illustrator 19.0.0, SVG Export Plug-In . SVG Version: 6.00 Build 0)  -->
<svg version="1.1" id="Capa_1" xmlns="http://www.w3.org/2000/svg" xmlns:xlink="http://www.w3.org/1999/xlink" x="0px" y="0px"
	 viewBox="0 0 464 464" style="enable-background:new 0 0 464 464;" xml:space="preserve">
<path style="fill:#6CBBC7;" d="M32,56h400c17.673,0,32,14.327,32,32v288c0,17.673-14.327,32-32,32H32c-17.673,0-32-14.327-32-32V88
	C0,70.327,14.327,56,32,56z"/>
<path style="fill:#FCE9CC;" d="M104,88h32c26.51,0,48,21.49,48,48v32c0,26.51-21.49,48-48,48h-32c-26.51,0-48-21.49-48-48v-32
	C56,109.49,77.49,88,104,88z"/>
<path style="fill:#FF6536;" d="M104,120h32c8.837,0,16,7.163,16,16v32c0,8.837-7.163,16-16,16h-32c-8.837,0-16-7.163-16-16v-32
	C88,127.163,95.163,120,104,120z"/>
<path style="fill:#FCE9CC;" d="M104,248h32c26.51,0,48,21.49,48,48v32c0,26.51-21.49,48-48,48h-32c-26.51,0-48-21.49-48-48v-32
	C56,269.49,77.49,248,104,248z"/>
<path style="fill:#FDB62F;" d="M104,280h32c8.837,0,16,7.163,16,16v32c0,8.837-7.163,16-16,16h-32c-8.837,0-16-7.163-16-16v-32
	C88,287.163,95.163,280,104,280z"/>
<path style="fill:#FCE9CC;" d="M232,88h48c8.837,0,16,7.163,16,16v96c0,8.837-7.163,16-16,16h-48c-8.837,0-16-7.163-16-16v-96
	C216,95.163,223.163,88,232,88z"/>
<path style="fill:#008100;" d="M216,136h80v32h-80V136z"/>
<g>
	<path style="fill:#FFA386;" d="M216,312h80v32h-80V312z"/>
	<path style="fill:#FFA386;" d="M296,264c0-8.837-7.163-16-16-16h-48c-8.837,0-16,7.163-16,16v16h80V264z"/>
</g>
<g>
	<path style="fill:#FF6536;" d="M216,360c0,8.837,7.163,16,16,16h48c8.837,0,16-7.163,16-16v-16h-80V360z"/>
	<path style="fill:#FF6536;" d="M216,280h80v32h-80V280z"/>
</g>
<path style="fill:#D75A4A;" d="M344,216h24l40-40v-40l-75.312,75.312C335.685,214.317,339.756,216.004,344,216z"/>
<path style="fill:#C64940;" d="M392,216c8.837,0,16-7.163,16-16v-24l-40,40H392z"/>
<path style="fill:#D75A4A;" d="M392,88h-16l-48,48v40l78.56-78.56C403.983,91.706,398.286,88.013,392,88z"/>
<g>
	<path style="fill:#C64940;" d="M344,88c-8.837,0-16,7.163-16,16v32l48-48H344z"/>
	<path style="fill:#C64940;" d="M328,176v24c-0.004,4.244,1.683,8.315,4.688,11.312L408,136v-32c-0.007-2.264-0.498-4.501-1.44-6.56
		L328,176z"/>
</g>
<path style="fill:#FF8800;" d="M403.312,252.688c-2.997-3.005-7.068-4.692-11.312-4.688h-48c-4.244-0.004-8.315,1.683-11.312,4.688
	L368,288L403.312,252.688z"/>
<path style="fill:#FF6536;" d="M328,328v32c0,8.837,7.163,16,16,16h48c8.837,0,16-7.163,16-16v-32l-40,40L328,328z"/>
<path style="fill:#FF8800;" d="M328,288v40l40,40l40-40v-40l-40,40L328,288z"/>
<path style="fill:#FF6536;" d="M368,288l-35.312-35.312c-3.005,2.997-4.692,7.068-4.688,11.312v24l40,40l40-40v-24
	c0.004-4.244-1.683-8.315-4.688-11.312L368,288z"/>
<g>
</g>
<g>
</g>
<g>
</g>
<g>
</g>
<g>
</g>
<g>
</g>
<g>
</g>
<g>
</g>
<g>
</g>
<g>
</g>
<g>
</g>
<g>
</g>
<g>
</g>
<g>
</g>
<g>
</g>
</svg>
