<?xml version="1.0" encoding="utf-8"?>
<!-- Generator: Adobe Illustrator 16.0.0, SVG Export Plug-In . SVG Version: 6.00 Build 0)  -->
<!DOCTYPE svg PUBLIC "-//W3C//DTD SVG 1.1//EN" "http://www.w3.org/Graphics/SVG/1.1/DTD/svg11.dtd">
<svg version="1.1" id="Pattern" xmlns="http://www.w3.org/2000/svg" xmlns:xlink="http://www.w3.org/1999/xlink" x="0px" y="0px"
	 width="800px" height="800px" viewBox="0 0 800 800" enable-background="new 0 0 800 800" xml:space="preserve">
<pattern  width="215.56" height="279.687" patternUnits="userSpaceOnUse" id="Motivo_nuevo_16" viewBox="218.854 -351.745 215.56 279.687" overflow="visible">
	<g>
		<polygon fill-rule="evenodd" clip-rule="evenodd" fill="none" points="218.854,-351.746 434.414,-351.746 434.414,-72.059 
			218.854,-72.059 		"/>
		<g>
			<polygon fill-rule="evenodd" clip-rule="evenodd" fill="#CFD9DB" points="329.928,-279.687 107.78,-279.687 107.78,-423.805 
				329.928,-423.805 			"/>
			<g>
				<g>
					<g>
						<path fill="#E86D27" d="M295.112-321.086c-3.914-2.054-14.555-6.739-21.13-4.856c-2.866,0.817-11.068,3.846-9.471,9.027
							c0.329,1.066,1.063,2.22,2.354,3.47c1.029,0.834,1.688,1.696,11.656,5.604c0.539-1.359,1.216-2.742,2.069-4.079
							C283.307-316.176,287.772-319.979,295.112-321.086z"/>
						<path fill="#E86D27" d="M298.427-319.119c-3.01,0.583-9.683,2.482-14.356,8.573c-0.885,1.153-1.701,2.447-2.403,3.918
							c2.184,0.834,4.701,1.778,7.64,2.854c1.258,0.241,10.88,5.342,13.362,9.405c0.863,1.153,3.729,3.804,9.348-2.385
							c0.57-0.631,1.17-1.345,1.796-2.167C314.495-299.741,320.608-305.184,298.427-319.119z"/>
					</g>
					<path fill="#F7F7F7" d="M264.069-314.608l-0.762,3.988c0,0-2.093,4.977,10.442,11.045c0.545,0.302,1.489,0.795,2.66,1.39
						c0.081-1.563,0.418-4.855,1.68-8.48C268.625-309.247,265.261-312.544,264.069-314.608z"/>
					<path fill="#DDDDDD" d="M266.865-313.445c-1.29-1.25-2.024-2.403-2.354-3.47l-0.442,2.307
						c1.192,2.064,4.556,5.362,14.021,7.942c0.136-0.391,0.273-0.781,0.432-1.176C268.552-311.749,267.894-312.611,266.865-313.445z
						"/>
					<path fill="#DDDDDD" d="M302.669-294.369c-2.482-4.063-12.104-9.164-13.362-9.405c-2.938-1.075-5.456-2.02-7.64-2.854
						c-0.146,0.307-0.271,0.649-0.407,0.971c4.653,1.541,15.115,5.391,21.04,12.495c0.303,0.058,2.26,4.726,8.355-0.97
						c0.507-0.77,0.968-1.634,1.361-2.622C306.399-290.565,303.533-293.216,302.669-294.369z"/>
					<path fill="#F7F7F7" d="M302.3-293.163c-5.925-7.104-16.387-10.954-21.04-12.495c-1.052,2.486-1.813,5.394-2.097,8.851
						c4.199,2.082,9.596,4.649,12.653,5.903c1.534,0.923,13.241,5.271,18.839-3.229C304.56-288.437,302.603-293.105,302.3-293.163z"
						/>
					<g>
						<path fill="#F9AA82" d="M283.2-315.22l0.563-0.301c-0.002-0.005-0.036-0.071-0.093-0.189c-0.165,0.158-0.319,0.321-0.477,0.48
							C283.195-315.228,283.197-315.221,283.2-315.22z"/>
						<path fill="#F9AA82" d="M278.525-307.862l0.005-0.014l0,0C278.528-307.871,278.527-307.868,278.525-307.862z"/>
						<path fill="#F9AA82" d="M278.39-307.571l0.135-0.292c-1.008-0.395-1.896-0.752-2.725-1.087
							C276.611-308.469,277.458-308.003,278.39-307.571z"/>
						<path fill="#F9AA82" d="M278.657-308.154c-0.04,0.092-0.089,0.185-0.127,0.278l0,0l0.129-0.276
							C278.657-308.151,278.657-308.154,278.657-308.154z"/>
						<path fill="#F9AA82" d="M279.167-324.597c0.309-0.607,0.704-1.115,1.139-1.579c-0.262-0.04-0.53-0.079-0.791-0.111
							c-0.349,0.425-0.659,0.888-0.918,1.402c-2.551,5.065-0.163,13.021,0.653,15.403c0.131-0.272,0.271-0.543,0.413-0.817
							C278.764-313.15,276.94-320.167,279.167-324.597z"/>
						<path fill="#F9AA82" d="M283.194-315.229c0.157-0.159,0.312-0.322,0.477-0.48c-0.394-0.82-1.862-4.153-0.933-6.861
							c0.377-1.105,1.139-1.968,2.219-2.605c-0.277-0.083-0.555-0.161-0.834-0.234c-0.948,0.68-1.623,1.557-1.99,2.635
							C280.989-319.441,283.071-315.462,283.194-315.229z"/>
						<path fill="#F9AA82" d="M291.535-320.289c0.256-0.078,0.512-0.154,0.771-0.224c0.192-0.683,0.197-1.328,0.033-1.938
							c-0.261-0.116-0.537-0.233-0.814-0.354c0.069,0.13,0.137,0.263,0.184,0.411C291.905-321.762,291.83-321.051,291.535-320.289z"
							/>
						<path fill="#F9AA82" d="M287.811-318.728c-0.616-1.736-0.416-3.977-0.122-5.58c-0.204-0.07-0.401-0.143-0.609-0.21
							c-0.318,1.705-0.551,4.176,0.169,6.11C287.432-318.52,287.62-318.624,287.811-318.728z"/>
						<path fill="#F9AA82" d="M272.098-325.337c-0.212,0.08-0.429,0.167-0.651,0.253c-0.283,6.879,1.794,12.474,6.079,16.347
							c0.374,0.195,0.732,0.396,1.131,0.582c0.042-0.109,0.1-0.221,0.147-0.332C274.032-312.288,271.734-318.08,272.098-325.337z"/>
						<path fill="#F9AA82" d="M277.526-308.736c-7.474-3.875-10.495-9.612-11.647-12.925c-0.167,0.181-0.332,0.354-0.479,0.542
							c1.188,3.236,3.994,8.373,10.4,12.17c0.828,0.335,1.717,0.692,2.725,1.087c0.002-0.005,0.003-0.009,0.005-0.014
							C278.179-308.151,277.85-308.441,277.526-308.736z"/>
						<path fill="#F9AA82" d="M278.657-308.154c-0.398-0.186-0.757-0.387-1.131-0.582c0.324,0.295,0.653,0.585,1.004,0.86
							C278.568-307.97,278.617-308.063,278.657-308.154z"/>
						<path fill="#F9AA82" d="M285.294-312c-0.358,0.389-0.711,0.796-1.049,1.229c-0.424,1.664-0.408,3.546,0.631,5.335
							c0.334,0.124,0.677,0.254,1.022,0.381C284.082-307.397,284.458-309.994,285.294-312z"/>
						<path fill="#F9AA82" d="M289.149-315.324c0.001,2.12,0.123,6.8,1.028,11.854c0.209,0.091,0.447,0.205,0.709,0.331
							c-1.043-5.54-1.11-10.725-1.095-12.604C289.578-315.608,289.364-315.466,289.149-315.324z"/>
						<path fill="#F9AA82" d="M293.067-317.467c-0.193,0.083-0.391,0.173-0.585,0.263c1.075,2.272,4.531,10.374,2.066,16.076
							c0.183,0.108,0.371,0.226,0.557,0.343C297.784-306.78,294.218-315.076,293.067-317.467z"/>
						<path fill="#F9AA82" d="M296.25-318.612c-0.212,0.062-0.426,0.125-0.65,0.193c1.64,2.188,6.966,10.389,3.579,20.457
							c0.179,0.142,0.362,0.279,0.534,0.425C303.246-307.697,298.107-316.057,296.25-318.612z"/>
						<path fill="#F9AA82" d="M297.999-319.047c-0.222,0.046-0.458,0.099-0.707,0.158c2.922,3.593,12.385,16.217,9.658,25.85
							c0.233-0.071,0.477-0.162,0.732-0.277C310.08-303.08,301.17-315.148,297.999-319.047z"/>
						<path fill="#F9AA82" d="M312.211-296.995c-2.606-4.793-2.933-10.742-2.862-14.111c-0.199-0.181-0.415-0.369-0.626-0.556
							c-0.116,3.354,0.12,9.945,3.032,15.165c0.09-0.098,0.176-0.177,0.265-0.277C312.084-296.844,312.15-296.925,312.211-296.995z"
							/>
					</g>
					<path d="M296.248-320.459c-0.256-0.155-0.656-0.376-1.136-0.626c-7.34,1.107-11.805,4.91-14.521,9.165
						c-0.854,1.337-1.53,2.72-2.069,4.079c-1.63,4.075-2.023,7.924-2.111,9.656c0.821,0.416,1.748,0.882,2.754,1.379
						c0.322-3.907,1.228-7.146,2.504-9.821c0.702-1.471,1.519-2.765,2.403-3.918c4.674-6.091,11.347-7.99,14.356-8.573
						C297.73-319.557,297.006-320.004,296.248-320.459z"/>
				</g>
				<path fill-rule="evenodd" clip-rule="evenodd" fill="#282828" d="M294.684-319.812c0,0-15.335,2.176-16.851,19.903
					C277.71-299.688,281.435-317.021,294.684-319.812z"/>
			</g>
			<g>
				<polygon fill="#FFE3C3" points="192.376,-385.511 191.335,-383.473 254.167,-350.414 255.986,-353.966 				"/>
				<polygon fill="#D3AB84" points="254.167,-350.414 275.874,-338.992 277.959,-343.07 255.986,-353.966 				"/>
			</g>
			<g>
				<polygon fill="#D3AB84" points="261.289,-359.186 282.993,-347.764 285.078,-351.843 263.103,-362.741 				"/>
			</g>
			<g>
				<path fill="#F7F7F7" d="M194.072-328.771c1.066,9.396,9.883,16.749,20.567,16.749c10.646,0,19.435-7.303,20.552-16.652
					c-3.498,3.056-11.359,5.188-20.504,5.188C205.447-323.487,197.515-325.663,194.072-328.771z"/>
				<path fill="#DDDDDD" d="M235.281-331.723c-0.02-0.294-0.257-0.529-0.552-0.541c-0.007,0-0.015,0-0.022,0
					c-0.286,0-0.529,0.21-0.568,0.495c-0.535,3.805-9.282,6.903-19.499,6.903c-10.218,0-18.966-3.098-19.501-6.903
					c-0.038-0.285-0.282-0.495-0.567-0.495c-0.008,0-0.015,0-0.022,0c-0.296,0.011-0.533,0.246-0.551,0.541
					c-0.023,0.365-0.033,0.704-0.033,1.037c0,0.646,0.036,1.285,0.107,1.915c3.443,3.108,11.375,5.284,20.615,5.284
					c9.145,0,17.006-2.131,20.504-5.188c0.078-0.66,0.123-1.333,0.123-2.011C235.314-331.019,235.302-331.358,235.281-331.723z"/>
				<path fill="#F7F7F7" d="M235.109-333.642c-1.404-3.906-10.01-6.911-20.422-6.911c-10.413,0-19.018,3.005-20.424,6.911
					c-0.079,0.516-0.139,1.041-0.172,1.57c0.594,4.229,9.587,7.589,20.596,7.589c11.008,0,20-3.36,20.594-7.589
					C235.25-332.602,235.188-333.126,235.109-333.642z"/>
				<path fill-rule="evenodd" clip-rule="evenodd" fill="#442A17" d="M214.365-326.667c8.9,0,16.171-2.446,16.652-5.528
					c-0.025-0.385-0.074-0.767-0.139-1.143c-1.137-2.843-8.096-5.032-16.514-5.032c-8.421,0-15.382,2.189-16.518,5.032
					c-0.063,0.376-0.112,0.758-0.138,1.143C198.189-329.113,205.459-326.667,214.365-326.667z"/>
			</g>
		</g>
		<g>
			<polygon fill-rule="evenodd" clip-rule="evenodd" fill="#CFD9DB" points="545.488,-279.687 323.339,-279.687 323.339,-423.805 
				545.488,-423.805 			"/>
			<g>
				<path fill-rule="evenodd" clip-rule="evenodd" d="M383.007-326.404h-38.029v28.334h0.005c0,0.029-0.005,0.059-0.005,0.088
					c0,4.605,8.514,8.336,19.015,8.336c10.5,0,19.014-3.73,19.014-8.336c0-0.029-0.004-0.059-0.004-0.088h0.004V-326.404z"/>
				<g>
					<path fill-rule="evenodd" clip-rule="evenodd" fill="#FCFCFC" d="M363.993-318.088c-10.271,0-18.631-3.609-18.631-8.045
						s8.359-8.046,18.631-8.046c10.275,0,18.631,3.61,18.631,8.046S374.268-318.088,363.993-318.088z"/>
					<path d="M363.993-333.797c-9.89,0-18.247,3.509-18.247,7.664c0,4.151,8.357,7.662,18.247,7.662
						c9.893,0,18.249-3.511,18.249-7.662C382.242-330.288,373.886-333.797,363.993-333.797 M363.993-334.563
						c10.5,0,19.014,3.775,19.014,8.43s-8.514,8.427-19.014,8.427c-10.501,0-19.015-3.772-19.015-8.427
						S353.492-334.563,363.993-334.563L363.993-334.563z"/>
				</g>
				<path fill="#E86D27" d="M375.129-326.502c-1.143-5.121-7.185-2.674-9.838-2.761c-0.094-0.005-0.176-0.009-0.271-0.009
					c0.224,0.303,0.843,1.358-0.8,1.918c-1.401,0.478-3.174,2.592-2.538,4.497C375.084-320.11,375.24-325.486,375.129-326.502z"/>
				<path fill="#D3F784" d="M364.221-327.354c1.643-0.56,1.024-1.615,0.8-1.918c-9.584-0.309-10.274,0.599-11.319,1.422
					c-4.082,3.209,2.238,3.229,6.281,4.619c0.592,0.139,1.154,0.26,1.7,0.374C361.047-324.762,362.82-326.876,364.221-327.354z"/>
				<path fill="#DDDDDD" d="M349.433-329.229c-0.349,0.907-0.316,2.178,0.915,2.221c0.302,0.012,0.298-0.451,0-0.463
					c-0.893-0.031-0.692-1.058-0.472-1.633C349.984-329.383,349.536-329.502,349.433-329.229L349.433-329.229z"/>
				<path fill="#DDDDDD" d="M350.655-324.232c0.918-0.087,1.062,1.283,0.609,1.842c-0.186,0.228,0.138,0.559,0.328,0.327
					c0.681-0.838,0.432-2.763-0.937-2.631C350.364-324.666,350.358-324.203,350.655-324.232L350.655-324.232z"/>
				<path fill="#DDDDDD" d="M349.47-323.762c-0.896,0.244-1.215-1.133-0.873-1.734c0.148-0.261-0.252-0.494-0.4-0.234
					c-0.547,0.957,0.082,2.771,1.394,2.415C349.878-323.394,349.757-323.84,349.47-323.762L349.47-323.762z"/>
				<path fill="#DDDDDD" d="M354.697-321.574c-0.313,0.445-0.413,0.992-0.086,1.457c0.318,0.458,0.914,0.611,1.441,0.586
					c0.296-0.013,0.296-0.475,0-0.461c-0.385,0.016-0.759-0.06-1.032-0.346c-0.287-0.299-0.129-0.713,0.075-1.003
					C355.266-321.586,354.867-321.816,354.697-321.574L354.697-321.574z"/>
				<path fill="#DDDDDD" d="M358.156-321.275c0.177-0.51,0.126-1.069-0.314-1.425c-0.434-0.353-1.043-0.345-1.548-0.175
					c-0.283,0.093-0.162,0.541,0.122,0.447c0.363-0.123,0.75-0.156,1.093,0.051c0.352,0.214,0.319,0.645,0.199,0.979
					C357.609-321.117,358.057-320.996,358.156-321.275L358.156-321.275z"/>
				<path fill="#DDDDDD" d="M354.442-330.564c-0.027,0.119-0.024,0.15,0.017,0.099c0.038-0.032,0.09-0.054,0.137-0.071
					c0.104-0.045,0.215-0.072,0.324-0.094c0.221-0.049,0.465-0.064,0.688-0.006c0.29,0.07,0.412-0.377,0.123-0.447
					c-0.425-0.105-0.91-0.042-1.312,0.123c-0.31,0.128-0.563,0.413-0.303,0.727C354.308-330.007,354.636-330.336,354.442-330.564
					L354.442-330.564z"/>
				<path fill="#DDDDDD" d="M358.39-332.026c0.775-0.256,1.617-0.559,2.049,0.355c0.128,0.271,0.528,0.037,0.401-0.233
					c-0.529-1.121-1.589-0.896-2.573-0.566C357.983-332.378,358.104-331.932,358.39-332.026L358.39-332.026z"/>
				<path fill="#DDDDDD" d="M358.608-330.481c-0.785-0.087-1.675-0.182-1.675-1.159c0-0.3-0.462-0.3-0.463,0
					c0,0.525,0.174,0.963,0.622,1.254c0.434,0.28,1.017,0.313,1.516,0.367C358.904-329.986,358.901-330.447,358.608-330.481
					L358.608-330.481z"/>
				<path fill="#DDDDDD" d="M350.795-328.635c0.777-0.257,1.622-0.559,2.051,0.358c0.128,0.269,0.527,0.033,0.399-0.235
					c-0.528-1.123-1.587-0.895-2.573-0.569C350.391-328.986,350.511-328.54,350.795-328.635L350.795-328.635z"/>
				<path fill="#DDDDDD" d="M363.592-332.026c0.473-0.11,0.682,0.14,1.063,0.322c0.242,0.116,0.541,0.099,0.8,0.099
					c0.826-0.004,1.619-0.462,2.277-0.904c0.245-0.168,0.012-0.568-0.235-0.402c-0.72,0.488-1.854,1.172-2.744,0.742
					c-0.481-0.232-0.73-0.431-1.286-0.301C363.176-332.402,363.301-331.959,363.592-332.026L363.592-332.026z"/>
				<path fill="#DDDDDD" d="M360.216-320.301c0.457-0.057,0.954-0.07,1.387,0.116c0.517,0.224,0.533,0.728,0.395,1.21
					c-0.085,0.286,0.361,0.408,0.444,0.121c0.169-0.578,0.145-1.244-0.406-1.613c-0.527-0.354-1.211-0.371-1.82-0.297
					C359.924-320.729,359.917-320.264,360.216-320.301L360.216-320.301z"/>
				<path fill="#DDDDDD" d="M366.141-319.547c0.204-0.58,1.379-0.125,1.799-0.042c0.523,0.106,1.096,0.174,1.565-0.128
					c0.248-0.16,0.017-0.559-0.233-0.398c-0.957,0.613-3.067-1.015-3.576,0.447C365.599-319.385,366.045-319.266,366.141-319.547
					L366.141-319.547z"/>
				<path fill="#DDDDDD" d="M380.808-327.018c-0.699-0.729-1.628-0.602-2.29,0.105c-0.669,0.722-0.869,1.852-0.388,2.721
					c0.145,0.261,0.543,0.025,0.399-0.236c-0.373-0.67-0.201-1.438,0.22-2.039c0.441-0.631,1.178-0.799,1.73-0.224
					C380.687-326.473,381.012-326.801,380.808-327.018L380.808-327.018z"/>
				<path fill="#DDDDDD" d="M376.619-323.84c-1.391-0.557-2.12,1.4-3.031,2.028c-0.246,0.169-0.013,0.57,0.234,0.4
					c0.753-0.52,1.589-2.415,2.674-1.979C376.773-323.282,376.893-323.729,376.619-323.84L376.619-323.84z"/>
				<path fill="#DDDDDD" d="M369.706-330.822c1.019-1.465,3.375-0.773,4.441,0.27c0.212,0.207,0.541-0.117,0.325-0.326
					c-1.3-1.271-3.968-1.896-5.164-0.178C369.137-330.813,369.538-330.58,369.706-330.822L369.706-330.822z"/>
				<path fill="#DDDDDD" d="M376.75-329.676c-1.092,0.643-1.26,1.816-0.955,2.961c0.075,0.287,0.521,0.165,0.442-0.123
					c-0.246-0.938-0.164-1.904,0.746-2.436C377.238-329.426,377.007-329.824,376.75-329.676L376.75-329.676z"/>
				<path fill-rule="evenodd" clip-rule="evenodd" fill="#282828" d="M346.932-321.304v22.61c0,0-0.926,6.682,19.834,6.889
					c-0.101-0.207-17.984-1.953-18.705-7.605C348.267-299.309,346.932-321.304,346.932-321.304z"/>
			</g>
			<g>
				<polygon fill="#FFE3C3" points="407.937,-385.511 406.895,-383.473 469.727,-350.414 471.545,-353.966 				"/>
			</g>
			<g>
				<path fill="#F7F7F7" d="M409.631-328.771c1.066,9.396,9.883,16.749,20.567,16.749c10.646,0,19.435-7.303,20.552-16.652
					c-3.498,3.056-11.359,5.188-20.504,5.188C421.006-323.487,413.075-325.663,409.631-328.771z"/>
				<path fill="#DDDDDD" d="M450.84-331.723c-0.02-0.294-0.257-0.529-0.552-0.541c-0.007,0-0.015,0-0.022,0
					c-0.286,0-0.529,0.21-0.568,0.495c-0.535,3.805-9.282,6.903-19.499,6.903c-10.218,0-18.966-3.098-19.501-6.903
					c-0.038-0.285-0.282-0.495-0.567-0.495c-0.008,0-0.015,0-0.022,0c-0.296,0.011-0.533,0.246-0.551,0.541
					c-0.023,0.365-0.033,0.704-0.033,1.037c0,0.646,0.036,1.285,0.107,1.915c3.443,3.108,11.375,5.284,20.615,5.284
					c9.145,0,17.006-2.131,20.504-5.188c0.078-0.66,0.123-1.333,0.123-2.011C450.874-331.019,450.862-331.358,450.84-331.723z"/>
				<path fill="#F7F7F7" d="M450.668-333.642c-1.404-3.906-10.01-6.911-20.422-6.911c-10.413,0-19.018,3.005-20.424,6.911
					c-0.079,0.516-0.139,1.041-0.172,1.57c0.594,4.229,9.587,7.589,20.596,7.589c11.008,0,20-3.36,20.594-7.589
					C450.809-332.602,450.748-333.126,450.668-333.642z"/>
				<path fill-rule="evenodd" clip-rule="evenodd" fill="#442A17" d="M429.924-326.667c8.9,0,16.171-2.446,16.652-5.528
					c-0.025-0.385-0.074-0.767-0.139-1.143c-1.137-2.843-8.096-5.032-16.514-5.032c-8.421,0-15.382,2.189-16.518,5.032
					c-0.063,0.376-0.112,0.758-0.138,1.143C413.749-329.113,421.019-326.667,429.924-326.667z"/>
			</g>
		</g>
		<g>
			<polygon fill-rule="evenodd" clip-rule="evenodd" fill="#CFD9DB" points="222.148,-139.843 0,-139.843 0,-283.961 
				222.148,-283.961 			"/>
		</g>
		<g>
			<polygon fill-rule="evenodd" clip-rule="evenodd" fill="#CFD9DB" points="437.708,-139.843 215.56,-139.843 215.56,-283.961 
				437.708,-283.961 			"/>
			<g>
				<path fill-rule="evenodd" clip-rule="evenodd" d="M275.227-186.561h-38.028v28.334h0.005c0,0.029-0.005,0.059-0.005,0.088
					c0,4.605,8.514,8.336,19.015,8.336c10.5,0,19.014-3.73,19.014-8.336c0-0.029-0.004-0.059-0.004-0.088h0.004V-186.561z"/>
				<g>
					<path fill-rule="evenodd" clip-rule="evenodd" fill="#FCFCFC" d="M256.213-178.245c-10.271,0-18.631-3.609-18.631-8.045
						s8.359-8.046,18.631-8.046c10.275,0,18.631,3.61,18.631,8.046S266.488-178.245,256.213-178.245z"/>
					<path d="M256.213-193.954c-9.891,0-18.247,3.509-18.247,7.664c0,4.151,8.356,7.662,18.247,7.662
						c9.893,0,18.249-3.511,18.249-7.662C274.462-190.445,266.105-193.954,256.213-193.954 M256.213-194.719
						c10.5,0,19.014,3.775,19.014,8.43s-8.514,8.427-19.014,8.427c-10.501,0-19.015-3.772-19.015-8.427
						S245.712-194.719,256.213-194.719L256.213-194.719z"/>
				</g>
				<path fill="#E86D27" d="M267.35-186.659c-1.143-5.121-7.186-2.674-9.838-2.761c-0.095-0.005-0.177-0.009-0.271-0.009
					c0.224,0.303,0.843,1.358-0.8,1.918c-1.401,0.478-3.174,2.592-2.538,4.497C267.305-180.267,267.46-185.643,267.35-186.659z"/>
				<path fill="#D3F784" d="M256.441-187.51c1.643-0.56,1.023-1.615,0.8-1.918c-9.584-0.309-10.274,0.599-11.319,1.422
					c-4.081,3.209,2.238,3.229,6.281,4.619c0.592,0.139,1.153,0.26,1.7,0.374C253.268-184.918,255.04-187.033,256.441-187.51z"/>
				<path fill="#DDDDDD" d="M241.652-189.385c-0.349,0.907-0.315,2.178,0.915,2.221c0.302,0.012,0.298-0.451,0-0.463
					c-0.893-0.031-0.692-1.058-0.472-1.633C242.204-189.54,241.756-189.659,241.652-189.385L241.652-189.385z"/>
				<path fill="#DDDDDD" d="M242.875-184.389c0.918-0.087,1.063,1.283,0.609,1.842c-0.186,0.228,0.138,0.559,0.328,0.327
					c0.681-0.838,0.432-2.763-0.938-2.631C242.584-184.823,242.578-184.36,242.875-184.389L242.875-184.389z"/>
				<path fill="#DDDDDD" d="M241.689-183.918c-0.896,0.244-1.215-1.133-0.872-1.734c0.147-0.261-0.252-0.494-0.4-0.234
					c-0.547,0.957,0.082,2.771,1.395,2.415C242.099-183.55,241.977-183.997,241.689-183.918L241.689-183.918z"/>
				<path fill="#DDDDDD" d="M246.917-181.731c-0.313,0.445-0.412,0.992-0.086,1.457c0.318,0.458,0.914,0.611,1.441,0.586
					c0.296-0.013,0.297-0.475,0-0.461c-0.385,0.016-0.759-0.06-1.031-0.346c-0.287-0.299-0.129-0.713,0.075-1.003
					C247.486-181.743,247.087-181.973,246.917-181.731L246.917-181.731z"/>
				<path fill="#DDDDDD" d="M250.376-181.432c0.178-0.51,0.127-1.069-0.313-1.425c-0.434-0.353-1.043-0.345-1.549-0.175
					c-0.283,0.093-0.162,0.541,0.122,0.447c0.363-0.123,0.749-0.156,1.093,0.051c0.352,0.214,0.318,0.645,0.199,0.979
					C249.829-181.274,250.276-181.153,250.376-181.432L250.376-181.432z"/>
				<path fill="#DDDDDD" d="M246.662-190.721c-0.027,0.119-0.024,0.15,0.017,0.099c0.038-0.032,0.09-0.054,0.137-0.071
					c0.104-0.045,0.215-0.072,0.323-0.094c0.221-0.049,0.466-0.064,0.688-0.006c0.29,0.07,0.412-0.377,0.123-0.447
					c-0.425-0.105-0.91-0.042-1.312,0.123c-0.311,0.128-0.563,0.413-0.304,0.727C246.528-190.164,246.855-190.493,246.662-190.721
					L246.662-190.721z"/>
				<path fill="#DDDDDD" d="M250.609-192.183c0.775-0.256,1.617-0.559,2.05,0.355c0.128,0.271,0.528,0.037,0.4-0.233
					c-0.529-1.121-1.589-0.896-2.572-0.566C250.203-192.535,250.324-192.088,250.609-192.183L250.609-192.183z"/>
				<path fill="#DDDDDD" d="M250.828-190.638c-0.785-0.087-1.675-0.182-1.675-1.159c0-0.3-0.462-0.3-0.463,0
					c0,0.525,0.174,0.963,0.622,1.254c0.434,0.28,1.017,0.313,1.516,0.367C251.124-190.143,251.121-190.604,250.828-190.638
					L250.828-190.638z"/>
				<path fill="#DDDDDD" d="M243.015-188.792c0.777-0.257,1.622-0.559,2.052,0.358c0.128,0.269,0.526,0.033,0.398-0.235
					c-0.527-1.123-1.587-0.895-2.572-0.569C242.61-189.143,242.73-188.697,243.015-188.792L243.015-188.792z"/>
				<path fill="#DDDDDD" d="M255.813-192.183c0.473-0.11,0.682,0.14,1.063,0.322c0.242,0.116,0.541,0.099,0.801,0.099
					c0.825-0.004,1.618-0.462,2.277-0.904c0.245-0.168,0.012-0.568-0.235-0.402c-0.72,0.488-1.854,1.172-2.743,0.742
					c-0.481-0.232-0.73-0.431-1.286-0.301C255.396-192.559,255.521-192.116,255.813-192.183L255.813-192.183z"/>
				<path fill="#DDDDDD" d="M252.436-180.458c0.457-0.057,0.954-0.07,1.388,0.116c0.517,0.224,0.532,0.728,0.395,1.21
					c-0.085,0.286,0.361,0.408,0.444,0.121c0.169-0.578,0.145-1.244-0.406-1.613c-0.526-0.354-1.211-0.371-1.82-0.297
					C252.144-180.886,252.138-180.42,252.436-180.458L252.436-180.458z"/>
				<path fill="#DDDDDD" d="M258.361-179.704c0.203-0.58,1.379-0.125,1.799-0.042c0.523,0.106,1.096,0.174,1.565-0.128
					c0.248-0.16,0.017-0.559-0.233-0.398c-0.957,0.613-3.067-1.015-3.576,0.447C257.819-179.542,258.265-179.422,258.361-179.704
					L258.361-179.704z"/>
				<path fill="#DDDDDD" d="M273.027-187.174c-0.698-0.729-1.628-0.602-2.289,0.105c-0.67,0.722-0.869,1.852-0.388,2.721
					c0.145,0.261,0.543,0.025,0.399-0.236c-0.373-0.67-0.201-1.438,0.22-2.039c0.44-0.631,1.178-0.799,1.73-0.224
					C272.907-186.629,273.231-186.958,273.027-187.174L273.027-187.174z"/>
				<path fill="#DDDDDD" d="M268.839-183.997c-1.391-0.557-2.12,1.4-3.03,2.028c-0.246,0.169-0.013,0.57,0.233,0.4
					c0.754-0.52,1.589-2.415,2.675-1.979C268.993-183.439,269.113-183.885,268.839-183.997L268.839-183.997z"/>
				<path fill="#DDDDDD" d="M261.926-190.979c1.019-1.465,3.375-0.773,4.441,0.27c0.212,0.207,0.541-0.117,0.325-0.326
					c-1.3-1.271-3.968-1.896-5.164-0.178C261.357-190.969,261.758-190.737,261.926-190.979L261.926-190.979z"/>
				<path fill="#DDDDDD" d="M268.971-189.833c-1.092,0.643-1.26,1.816-0.955,2.961c0.075,0.287,0.521,0.165,0.442-0.123
					c-0.246-0.938-0.164-1.904,0.746-2.436C269.458-189.583,269.227-189.981,268.971-189.833L268.971-189.833z"/>
				<path fill-rule="evenodd" clip-rule="evenodd" fill="#282828" d="M239.151-181.46v22.61c0,0-0.926,6.682,19.835,6.889
					c-0.102-0.207-17.984-1.953-18.705-7.605C240.487-159.465,239.151-181.46,239.151-181.46z"/>
			</g>
			<g>
				<g>
					<g>
						<path fill="#E86D27" d="M402.892-181.242c-3.914-2.054-14.555-6.739-21.13-4.856c-2.866,0.817-11.068,3.846-9.471,9.027
							c0.329,1.066,1.063,2.22,2.354,3.47c1.029,0.834,1.688,1.696,11.656,5.604c0.539-1.36,1.216-2.742,2.069-4.079
							C391.087-176.333,395.552-180.135,402.892-181.242z"/>
						<path fill="#E86D27" d="M406.207-179.276c-3.01,0.583-9.683,2.483-14.356,8.574c-0.885,1.152-1.701,2.447-2.403,3.918
							c2.184,0.834,4.701,1.778,7.64,2.854c1.258,0.241,10.88,5.342,13.362,9.405c0.863,1.154,3.729,3.804,9.348-2.385
							c0.57-0.631,1.17-1.345,1.796-2.167C422.274-159.897,428.388-165.341,406.207-179.276z"/>
					</g>
					<path fill="#F7F7F7" d="M371.849-174.765l-0.762,3.988c0,0-2.093,4.977,10.442,11.045c0.545,0.302,1.489,0.795,2.66,1.39
						c0.081-1.563,0.418-4.855,1.68-8.48C376.404-169.403,373.041-172.7,371.849-174.765z"/>
					<path fill="#DDDDDD" d="M374.645-173.602c-1.29-1.25-2.024-2.403-2.354-3.47l-0.442,2.307
						c1.192,2.064,4.556,5.361,14.021,7.942c0.136-0.391,0.273-0.781,0.432-1.176C376.332-171.905,375.674-172.768,374.645-173.602z
						"/>
					<path fill="#DDDDDD" d="M410.449-154.526c-2.482-4.063-12.104-9.164-13.362-9.405c-2.938-1.075-5.456-2.02-7.64-2.854
						c-0.146,0.307-0.271,0.649-0.407,0.971c4.653,1.54,15.115,5.391,21.04,12.494c0.303,0.058,2.26,4.727,8.355-0.97
						c0.507-0.77,0.968-1.634,1.361-2.622C414.179-150.722,411.313-153.372,410.449-154.526z"/>
					<path fill="#F7F7F7" d="M410.08-153.319c-5.925-7.104-16.387-10.955-21.04-12.494c-1.052,2.486-1.813,5.394-2.097,8.851
						c4.199,2.081,9.596,4.649,12.653,5.903c1.534,0.923,13.241,5.271,18.839-3.229C412.34-148.593,410.383-153.262,410.08-153.319z
						"/>
					<g>
						<path fill="#F9AA82" d="M390.979-175.376l0.563-0.301c-0.002-0.006-0.036-0.071-0.093-0.189
							c-0.165,0.158-0.319,0.321-0.477,0.48C390.975-175.384,390.977-175.377,390.979-175.376z"/>
						<path fill="#F9AA82" d="M386.305-168.019l0.005-0.015l0,0C386.308-168.028,386.307-168.025,386.305-168.019z"/>
						<path fill="#F9AA82" d="M386.17-167.728l0.135-0.291c-1.008-0.395-1.896-0.752-2.725-1.087
							C384.391-168.625,385.238-168.159,386.17-167.728z"/>
						<path fill="#F9AA82" d="M386.437-168.311c-0.04,0.091-0.089,0.185-0.127,0.277l0,0l0.129-0.275
							C386.437-168.308,386.437-168.311,386.437-168.311z"/>
						<path fill="#F9AA82" d="M386.947-184.754c0.309-0.607,0.704-1.114,1.139-1.579c-0.262-0.039-0.53-0.079-0.791-0.111
							c-0.349,0.426-0.659,0.888-0.918,1.402c-2.551,5.064-0.163,13.021,0.653,15.403c0.131-0.272,0.271-0.544,0.413-0.817
							C386.544-173.307,384.72-180.324,386.947-184.754z"/>
						<path fill="#F9AA82" d="M390.974-175.386c0.157-0.159,0.312-0.322,0.477-0.48c-0.394-0.819-1.862-4.153-0.933-6.86
							c0.377-1.105,1.139-1.969,2.219-2.605c-0.277-0.082-0.555-0.16-0.834-0.235c-0.948,0.68-1.623,1.558-1.99,2.635
							C388.769-179.598,390.851-175.618,390.974-175.386z"/>
						<path fill="#F9AA82" d="M399.314-180.445c0.256-0.077,0.512-0.154,0.771-0.224c0.192-0.684,0.197-1.328,0.033-1.939
							c-0.261-0.115-0.537-0.232-0.814-0.353c0.069,0.131,0.137,0.263,0.184,0.411C399.685-181.918,399.609-181.208,399.314-180.445
							z"/>
						<path fill="#F9AA82" d="M395.591-178.884c-0.616-1.736-0.416-3.977-0.122-5.58c-0.204-0.07-0.401-0.144-0.609-0.211
							c-0.318,1.705-0.551,4.176,0.169,6.11C395.212-178.676,395.399-178.78,395.591-178.884z"/>
						<path fill="#F9AA82" d="M379.878-185.493c-0.212,0.08-0.429,0.167-0.651,0.253c-0.283,6.879,1.794,12.474,6.079,16.348
							c0.374,0.195,0.732,0.396,1.131,0.582c0.042-0.109,0.1-0.222,0.147-0.332C381.812-172.444,379.514-178.236,379.878-185.493z"
							/>
						<path fill="#F9AA82" d="M385.306-168.893c-7.474-3.875-10.495-9.612-11.647-12.925c-0.167,0.181-0.332,0.354-0.479,0.542
							c1.188,3.236,3.994,8.373,10.4,12.17c0.828,0.335,1.717,0.692,2.725,1.087c0.002-0.006,0.003-0.009,0.005-0.015
							C385.959-168.308,385.63-168.598,385.306-168.893z"/>
						<path fill="#F9AA82" d="M386.437-168.311c-0.398-0.186-0.757-0.387-1.131-0.582c0.324,0.295,0.653,0.585,1.004,0.859
							C386.348-168.126,386.396-168.219,386.437-168.311z"/>
						<path fill="#F9AA82" d="M393.074-172.156c-0.358,0.389-0.711,0.795-1.049,1.229c-0.424,1.664-0.408,3.546,0.631,5.335
							c0.334,0.124,0.677,0.254,1.022,0.381C391.861-167.554,392.237-170.151,393.074-172.156z"/>
						<path fill="#F9AA82" d="M396.929-175.48c0.001,2.119,0.123,6.8,1.028,11.854c0.209,0.091,0.447,0.205,0.709,0.331
							c-1.043-5.54-1.11-10.725-1.095-12.605C397.357-175.765,397.144-175.622,396.929-175.48z"/>
						<path fill="#F9AA82" d="M400.847-177.623c-0.193,0.082-0.391,0.173-0.585,0.262c1.075,2.273,4.531,10.374,2.066,16.077
							c0.183,0.108,0.371,0.226,0.557,0.342C405.563-166.937,401.998-175.233,400.847-177.623z"/>
						<path fill="#F9AA82" d="M404.029-178.769c-0.212,0.062-0.426,0.125-0.65,0.193c1.64,2.188,6.966,10.389,3.579,20.456
							c0.179,0.142,0.362,0.279,0.534,0.425C411.025-167.854,405.887-176.213,404.029-178.769z"/>
						<path fill="#F9AA82" d="M405.778-179.204c-0.222,0.046-0.458,0.1-0.707,0.158c2.922,3.593,12.385,16.217,9.658,25.85
							c0.233-0.071,0.477-0.163,0.732-0.277C417.859-163.236,408.95-175.305,405.778-179.204z"/>
						<path fill="#F9AA82" d="M419.991-157.152c-2.606-4.793-2.933-10.742-2.862-14.111c-0.199-0.182-0.415-0.369-0.626-0.557
							c-0.116,3.354,0.12,9.945,3.032,15.165c0.09-0.098,0.176-0.178,0.265-0.277C419.864-157,419.93-157.082,419.991-157.152z"/>
					</g>
					<path d="M404.027-180.616c-0.256-0.154-0.656-0.376-1.136-0.626c-7.34,1.107-11.805,4.909-14.521,9.165
						c-0.854,1.337-1.53,2.719-2.069,4.079c-1.63,4.074-2.023,7.924-2.111,9.656c0.821,0.416,1.748,0.882,2.754,1.379
						c0.322-3.907,1.228-7.146,2.504-9.821c0.702-1.471,1.519-2.766,2.403-3.918c4.674-6.091,11.347-7.991,14.356-8.574
						C405.51-179.713,404.786-180.16,404.027-180.616z"/>
				</g>
				<path fill-rule="evenodd" clip-rule="evenodd" fill="#282828" d="M402.464-179.968c0,0-15.335,2.176-16.851,19.902
					C385.49-159.845,389.215-177.177,402.464-179.968z"/>
			</g>
			<g>
				<path fill="#F9F9F9" d="M414.765-256.221c-2.501-4.335-10.405-14.334-15.411-14.334c-5.004,0-13.217,9.847-15.722,14.179
					c-2.502,4.336-6.802,16.165-4.3,20.502c1.277,2.209,5.115,3.525,9.236,4.285v-24.65h22.21v24.5
					c3.89-0.781,7.402-2.066,8.596-4.135C421.878-240.211,417.268-251.884,414.765-256.221z"/>
				<path fill="#DDDDDD" d="M401.421-267.362c-1.942,1.565,0.3,4.44,2.319,4.366c0.236-0.009,0.236-0.372,0-0.364
					c-1.713,0.063-3.753-2.382-2.061-3.745C401.863-267.251,401.602-267.509,401.421-267.362L401.421-267.362z"/>
				<path fill="#DDDDDD" d="M398.501-264.669c1.199,1.02,0.117,2.83-0.73,3.718c-0.163,0.169,0.096,0.426,0.256,0.256
					c0.987-1.032,2.1-3.067,0.731-4.233C398.581-265.08,398.322-264.824,398.501-264.669L398.501-264.669z"/>
				<path fill="#DDDDDD" d="M395.535-264.066c-1.096,0.545-1.688,1.623-1.631,2.836c0.01,0.233,0.376,0.234,0.365,0
					c-0.051-1.096,0.461-2.029,1.452-2.52C395.932-263.855,395.746-264.168,395.535-264.066L395.535-264.066z"/>
				<path fill="#DDDDDD" d="M400.663-259.029c0.597,1.096-2.839,2.233-3.575,2.32c-0.231,0.029-0.232,0.395,0,0.365
					c1.002-0.118,4.731-1.326,3.889-2.869C400.865-259.418,400.551-259.236,400.663-259.029L400.663-259.029z"/>
				<path fill="#DDDDDD" d="M405.525-259.181c1.424-0.168,1.928,1.774,1.088,2.689c-0.161,0.174,0.099,0.432,0.257,0.258
					c1.036-1.125,0.415-3.521-1.345-3.313C405.295-259.518,405.292-259.154,405.525-259.181L405.525-259.181z"/>
				<path fill="#DDDDDD" d="M408.855-260.166c0.361,0.742,0.634,1.523,0.875,2.311c0.067,0.225,0.42,0.129,0.352-0.097
					c-0.249-0.819-0.536-1.629-0.91-2.396C409.067-260.56,408.753-260.375,408.855-260.166L408.855-260.166z"/>
				<path fill="#DDDDDD" d="M412.21-253.21c-1.2,0.484-1.347,1.785-1.35,2.933c-0.001,0.236,0.363,0.236,0.365,0
					c0.004-0.946,0.064-2.168,1.082-2.583C412.523-252.947,412.428-253.3,412.21-253.21L412.21-253.21z"/>
				<path fill="#DDDDDD" d="M412.816-249.958c1.195,0.813-0.162,2.453-1.055,2.849c-0.215,0.097-0.03,0.411,0.185,0.315
					c1.188-0.529,2.487-2.504,1.055-3.479C412.805-250.406,412.623-250.089,412.816-249.958L412.816-249.958z"/>
				<path fill="#DDDDDD" d="M412.492-245.162c-1.267,0.787-1.679,2.438-0.686,3.613c0.151,0.178,0.411-0.08,0.258-0.26
					c-0.841-0.996-0.439-2.381,0.611-3.038C412.873-244.97,412.691-245.288,412.492-245.162L412.492-245.162z"/>
				<path fill="#DDDDDD" d="M414.807-244.309c1.003,0.78,0.838,3.123-0.568,3.347c-0.232,0.037-0.133,0.389,0.097,0.354
					c1.672-0.268,1.941-3.018,0.731-3.956C414.881-244.708,414.623-244.453,414.807-244.309L414.807-244.309z"/>
				<path fill="#DDDDDD" d="M415.733-239.115c0.518,1.654-0.775,3.24-2.5,3.014c-0.232-0.029-0.231,0.334,0,0.365
					c1.958,0.258,3.434-1.613,2.854-3.477C416.017-239.435,415.663-239.339,415.733-239.115L415.733-239.115z"/>
				<path fill="#DDDDDD" d="M412.99-238.21c-1.406-0.039-2.172,1.271-2.448,2.486c-0.053,0.23,0.3,0.328,0.352,0.098
					c0.238-1.053,0.858-2.254,2.097-2.219C413.225-237.839,413.224-238.203,412.99-238.21L412.99-238.21z"/>
				<path fill="#DDDDDD" d="M386.45-235.914c-1.01,0.693-2.016-0.461-2.427-1.313c-0.104-0.213-0.417-0.027-0.316,0.184
					c0.502,1.039,1.741,2.26,2.928,1.445C386.825-235.73,386.643-236.046,386.45-235.914L386.45-235.914z"/>
				<path fill="#DDDDDD" d="M385.808-237.775c0.429-0.969,0.107-2.064-0.598-2.816c-0.162-0.172-0.418,0.088-0.258,0.258
					c0.581,0.622,0.899,1.564,0.538,2.377C385.396-237.744,385.711-237.56,385.808-237.775L385.808-237.775z"/>
				<path fill="#DDDDDD" d="M382.418-243.09c0.255-0.942,0.855-1.682,1.7-2.161c0.204-0.118,0.021-0.434-0.185-0.317
					c-0.924,0.526-1.588,1.351-1.868,2.384C382.004-242.958,382.355-242.863,382.418-243.09L382.418-243.09z"/>
				<path fill="#DDDDDD" d="M386.59-244.748c1.092-0.373,0.948-1.924,0.777-2.82c-0.044-0.231-0.396-0.133-0.353,0.096
					c0.127,0.669,0.319,2.085-0.521,2.373C386.271-245.023,386.367-244.671,386.59-244.748L386.59-244.748z"/>
				<path fill="#DDDDDD" d="M385.974-252.327c-1.21-0.045-2.065,0.839-2.448,1.921c-0.078,0.223,0.274,0.316,0.352,0.095
					c0.33-0.929,1.055-1.689,2.097-1.649C386.208-251.951,386.208-252.316,385.974-252.327L385.974-252.327z"/>
				<path fill="#DDDDDD" d="M390.609-258.468c-1.315-0.635-2.509-0.157-3.547,0.76c-0.178,0.157,0.082,0.414,0.257,0.258
					c0.901-0.797,1.947-1.262,3.105-0.701C390.636-258.05,390.821-258.365,390.609-258.468L390.609-258.468z"/>
				<path fill="#DDDDDD" d="M385.067-256.072c0.555,1.332,2.289,1.732,3.583,1.84c0.237,0.018,0.233-0.346,0-0.366
					c-1.101-0.091-2.753-0.423-3.23-1.569C385.33-256.38,384.978-256.288,385.067-256.072L385.067-256.072z"/>
				<path fill="#DDDDDD" d="M391.072-260.018c1.459,0.641,2.065,2.403,1.94,3.9c-0.021,0.233,0.345,0.231,0.363,0
					c0.135-1.614-0.551-3.528-2.118-4.214C391.045-260.427,390.858-260.113,391.072-260.018L391.072-260.018z"/>
				<path d="M388.568-256.24v24.65c3.96,0.734,8.18,0.953,10.63,0.953c2.618,0,7.323-0.248,11.581-1.104v-24.5H388.568z"/>
				<path fill-rule="evenodd" clip-rule="evenodd" fill="#282828" d="M389.713-255.007l0.137,22.059c0,0,7.505,1.959,19.176-0.57
					c0.082,0.406-15.015,1.143-17.954-1.307C390.909-234.908,391.209-237.246,389.713-255.007z"/>
			</g>
			<g>
				<path fill="#FFFFFF" stroke="#FFFFFF" stroke-linecap="round" stroke-linejoin="round" stroke-miterlimit="10" d="
					M236.182-254.709c0.181-2.043,2.134-7.148,4.958-6.193c0.719,0.191,3.159-5.263,6.652-2.681c0.526,0.097,1.82-3.684,5.457-1.532
					c0.383-0.142,2.773-3.541,5.455,1.055c0.718,0.192,5.264-2.728,8.231,3.397c0.479,0.19,4.786,0.765,5.36,5.599
					c0.047-0.141,2.644-2.785,3.6,0.42c0.048,0.287-1.351,7.91-18.867,7.91C257.173-246.688,235.468-246.702,236.182-254.709z"/>
				<path fill="#E86D27" d="M276.74-253.204c0-0.332-0.011-0.669-0.033-1.035c-0.017-0.295-0.256-0.529-0.55-0.539
					c-0.008-0.002-0.016-0.002-0.024-0.002c-0.283,0-0.527,0.209-0.567,0.494c-0.534,3.805-9.28,6.902-19.5,6.902
					c-10.218,0-18.965-3.096-19.498-6.902c-0.041-0.285-0.282-0.494-0.568-0.494c-0.008,0-0.017,0-0.022,0.002
					c-0.296,0.009-0.533,0.244-0.552,0.539c-0.022,0.371-0.033,0.709-0.033,1.035c0,7.594,5.053,14.139,12.279,17.049
					c-1.979,0.789-3.186,1.859-3.186,3.059c0,2.469,5.088,4.402,11.58,4.402c6.494,0,11.582-1.934,11.582-4.402
					c0-1.199-1.207-2.27-3.187-3.059C271.688-239.065,276.74-245.61,276.74-253.204z"/>
				<path fill="#DDDDDD" d="M269.916-256.78c-0.977-0.494-2.156-0.246-2.846,0.607c-0.174,0.215,0.13,0.52,0.304,0.305
					c0.565-0.697,1.511-0.953,2.323-0.541C269.947-256.284,270.163-256.656,269.916-256.78L269.916-256.78z"/>
				<path fill="#DDDDDD" d="M267.973-253.684c-0.43,1.07-2.514,1.285-3.147,0.33c-0.153-0.229-0.527-0.014-0.372,0.217
					c0.854,1.289,3.362,0.988,3.935-0.434C268.491-253.829,268.074-253.938,267.973-253.684L267.973-253.684z"/>
				<path fill="#DDDDDD" d="M266.003-257.456c-0.085-1.746-2.565-2.191-3.624-1.016c-0.185,0.209,0.12,0.514,0.307,0.307
					c0.787-0.879,2.82-0.675,2.886,0.709C265.585-257.18,266.015-257.18,266.003-257.456L266.003-257.456z"/>
				<path fill="#DDDDDD" d="M265.321-261.95c-1.115-0.568-2.319-0.692-3.555-0.699c-0.277-0.001-0.277,0.428,0,0.429
					c1.154,0.007,2.293,0.109,3.336,0.643C265.351-261.452,265.569-261.823,265.321-261.95L265.321-261.95z"/>
				<path fill="#DDDDDD" d="M258.474-263.161c-1.134-1.15-3.109-0.887-3.785,0.618c-0.111,0.251,0.26,0.471,0.371,0.218
					c0.563-1.251,2.154-1.502,3.109-0.531C258.364-262.659,258.667-262.963,258.474-263.161L258.474-263.161z"/>
				<path fill="#DDDDDD" d="M257.826-260.655c0.133,0.984-0.874,1.895-1.804,1.932c-0.275,0.01-0.275,0.439,0,0.43
					c1.24-0.046,2.392-1.209,2.221-2.475C258.204-261.043,257.789-260.926,257.826-260.655L257.826-260.655z"/>
				<path fill="#DDDDDD" d="M259.24-256.897c-1.004-0.217-2.307-0.229-2.563,1.01c-0.056,0.271,0.358,0.387,0.415,0.115
					c0.203-0.98,1.264-0.875,2.032-0.711C259.396-256.424,259.512-256.842,259.24-256.897L259.24-256.897z"/>
				<path fill="#DDDDDD" d="M259.667-253.422c0.538,0.756-0.211,1.396-0.963,1.494c-0.271,0.035-0.275,0.467,0,0.43
					c1.043-0.135,2.085-1.088,1.334-2.143C259.879-253.864,259.505-253.649,259.667-253.422L259.667-253.422z"/>
				<path fill="#DDDDDD" d="M260.337-249.906c-0.402,0.898-1.378,1.207-2.304,1.136c-0.275-0.021-0.274,0.41,0,0.43
					c1.063,0.082,2.219-0.323,2.676-1.35C260.82-249.94,260.449-250.161,260.337-249.906L260.337-249.906z"/>
				<path fill="#DDDDDD" d="M255.06-252.11c-0.806-1.461-2.499-0.412-2.881,0.816c-0.082,0.268,0.334,0.379,0.416,0.115
					c0.27-0.867,1.482-1.824,2.094-0.713C254.824-251.649,255.196-251.866,255.06-252.11L255.06-252.11z"/>
				<path fill="#DDDDDD" d="M253.861-249.623c-1.115,0.337-2.152,0.144-3.045-0.614c-0.211-0.18-0.517,0.121-0.305,0.305
					c1.008,0.854,2.194,1.107,3.465,0.725C254.24-249.288,254.127-249.706,253.861-249.623L253.861-249.623z"/>
				<path fill="#DDDDDD" d="M253.356-254.301c0.087-0.055,0.179-0.074,0.275-0.066c0.117-0.004,0.215-0.1,0.215-0.219
					c0-0.555-0.682-0.68-1.146-0.766c-0.621-0.113-1.248,0.037-1.762,0.391c-0.229,0.156-0.014,0.529,0.218,0.372
					c0.737-0.508,1.612-0.441,2.365,0c-0.035-0.063-0.07-0.124-0.104-0.186c0,0.064,0,0.127,0,0.189
					c0.07-0.07,0.142-0.143,0.215-0.215c-0.186,0.004-0.337,0.025-0.492,0.125C252.906-254.524,253.123-254.152,253.356-254.301
					L253.356-254.301z"/>
				<path fill="#DDDDDD" d="M252.539-258.756c-0.656-0.822-2.011-0.891-2.846-0.32c-0.227,0.152-0.012,0.529,0.218,0.371
					c0.69-0.471,1.779-0.428,2.323,0.254C252.408-258.235,252.71-258.542,252.539-258.756L252.539-258.756z"/>
				<path fill="#DDDDDD" d="M251.965-263.406c-1.137-0.264-2.208,0.169-2.983,1.012c-0.188,0.204,0.115,0.509,0.304,0.306
					c0.669-0.73,1.575-1.135,2.565-0.904C252.121-262.928,252.235-263.344,251.965-263.406L251.965-263.406z"/>
				<path fill="#DDDDDD" d="M245.782-262.648c-1.4,0.074-1.591,1.925-1.047,2.908c0.134,0.242,0.506,0.025,0.371-0.217
					c-0.373-0.676-0.373-2.205,0.676-2.262C246.059-262.233,246.06-262.665,245.782-262.648L245.782-262.648z"/>
				<path fill="#DDDDDD" d="M246.645-259.346c1.323-0.016,0.484,2.525-0.345,2.83c-0.259,0.096-0.147,0.512,0.114,0.416
					c1.257-0.46,2.146-3.699,0.23-3.677C246.366-259.773,246.366-259.344,246.645-259.346L246.645-259.346z"/>
				<path fill="#DDDDDD" d="M247.066-254.241c0.856,0.926-0.801,1.651-1.489,1.959c-0.252,0.113-0.033,0.484,0.219,0.371
					c0.999-0.447,2.707-1.412,1.574-2.635C247.182-254.75,246.877-254.444,247.066-254.241L247.066-254.241z"/>
				<path fill="#DDDDDD" d="M243.524-254.219c-1.625,0.242-2.516,1.559-1.97,3.137c0.091,0.262,0.506,0.148,0.415-0.113
					c-0.476-1.375,0.272-2.398,1.669-2.607C243.911-253.844,243.796-254.258,243.524-254.219L243.524-254.219z"/>
				<path fill="#DDDDDD" d="M239.098-254.643c-0.142-0.473-0.009-0.873,0.328-1.225c0.193-0.201-0.11-0.505-0.304-0.305
					c-0.44,0.461-0.626,1.023-0.439,1.646C238.764-254.262,239.179-254.375,239.098-254.643L239.098-254.643z"/>
				<path fill="#DDDDDD" d="M240.793-258.514c0.997,0.461,1.116,1.491,0.762,2.438c-0.098,0.26,0.318,0.371,0.415,0.113
					c0.418-1.117,0.199-2.387-0.961-2.924C240.76-259.002,240.539-258.629,240.793-258.514L240.793-258.514z"/>
				<path fill="#DDDDDD" d="M242.026-260.231c0,0.223,0,0.445,0,0.67c0,0.277,0.43,0.277,0.43,0c0-0.225,0-0.448,0-0.67
					C242.456-260.51,242.026-260.51,242.026-260.231L242.026-260.231z"/>
				<path fill="#DDDDDD" d="M266.731-250.559c-0.644,0.432-1.382,0.532-2.131,0.359c-0.271-0.059-0.387,0.355-0.116,0.418
					c0.856,0.193,1.727,0.089,2.466-0.407C267.177-250.34,266.962-250.713,266.731-250.559L266.731-250.559z"/>
				<path fill="#DDDDDD" d="M263.094-256.016c-0.856,0.443-1.585,1.123-1.918,2.045c-0.094,0.262,0.321,0.371,0.417,0.115
					c0.294-0.816,0.967-1.4,1.72-1.787C263.56-255.772,263.341-256.143,263.094-256.016L263.094-256.016z"/>
				<path fill="#F9AA82" d="M236.881-251.186c0,0,1.099,12.25,15.361,14.642C252.195-236.686,240.612-239.606,236.881-251.186z"/>
			</g>
			<g>
				<polygon fill="#FFE3C3" points="300.156,-245.667 299.115,-243.63 361.947,-210.57 363.766,-214.123 				"/>
				<polygon fill="#D3AB84" points="361.947,-210.57 383.654,-199.149 385.739,-203.227 363.766,-214.123 				"/>
			</g>
			<g>
				<polygon fill="#FFE3C3" points="307.278,-254.443 306.235,-252.401 369.068,-219.342 370.883,-222.897 				"/>
				<polygon fill="#D3AB84" points="369.068,-219.342 390.772,-207.92 392.857,-212 370.883,-222.897 				"/>
			</g>
			<g>
				<path fill="#F7F7F7" d="M301.852-188.928c1.066,9.396,9.883,16.749,20.567,16.749c10.646,0,19.435-7.303,20.552-16.651
					c-3.498,3.056-11.359,5.188-20.504,5.188C313.227-183.643,305.295-185.819,301.852-188.928z"/>
				<path fill="#DDDDDD" d="M343.061-191.879c-0.02-0.294-0.257-0.529-0.552-0.541c-0.007,0-0.015,0-0.022,0
					c-0.286,0-0.529,0.21-0.568,0.495c-0.535,3.805-9.282,6.903-19.499,6.903c-10.218,0-18.966-3.098-19.501-6.903
					c-0.038-0.285-0.282-0.495-0.567-0.495c-0.008,0-0.015,0-0.022,0c-0.296,0.011-0.533,0.246-0.551,0.541
					c-0.023,0.365-0.033,0.704-0.033,1.037c0,0.646,0.036,1.285,0.107,1.915c3.443,3.108,11.375,5.285,20.615,5.285
					c9.145,0,17.006-2.132,20.504-5.188c0.078-0.661,0.123-1.333,0.123-2.012C343.094-191.175,343.082-191.514,343.061-191.879z"/>
				<path fill="#F7F7F7" d="M342.889-193.799c-1.404-3.906-10.01-6.911-20.422-6.911c-10.413,0-19.018,3.005-20.424,6.911
					c-0.079,0.516-0.139,1.041-0.172,1.57c0.594,4.229,9.587,7.59,20.596,7.59c11.008,0,20-3.361,20.594-7.59
					C343.029-192.758,342.968-193.283,342.889-193.799z"/>
				<path fill-rule="evenodd" clip-rule="evenodd" fill="#442A17" d="M322.145-186.823c8.9,0,16.171-2.446,16.652-5.528
					c-0.025-0.385-0.074-0.767-0.139-1.143c-1.137-2.843-8.096-5.032-16.514-5.032c-8.421,0-15.382,2.189-16.518,5.032
					c-0.063,0.376-0.112,0.758-0.138,1.143C305.969-189.27,313.239-186.823,322.145-186.823z"/>
			</g>
		</g>
		<g>
			<polygon fill-rule="evenodd" clip-rule="evenodd" fill="#CFD9DB" points="653.268,-139.843 431.119,-139.843 431.119,-283.961 
				653.268,-283.961 			"/>
		</g>
		<g>
			<polygon fill-rule="evenodd" clip-rule="evenodd" fill="#CFD9DB" points="329.928,0 107.78,0 107.78,-144.118 329.928,-144.118 
							"/>
			<g>
				<path fill="#F9F9F9" d="M306.985-116.378c-2.501-4.335-10.406-14.334-15.411-14.334c-5.004,0-13.217,9.847-15.722,14.179
					c-2.503,4.336-6.802,16.165-4.3,20.502c1.277,2.209,5.115,3.525,9.236,4.285v-24.65h22.21v24.5
					c3.891-0.781,7.402-2.066,8.596-4.135C314.099-100.368,309.488-112.041,306.985-116.378z"/>
				<path fill="#DDDDDD" d="M293.641-127.519c-1.942,1.565,0.3,4.44,2.32,4.366c0.236-0.009,0.236-0.372,0-0.364
					c-1.713,0.063-3.753-2.382-2.061-3.745C294.083-127.408,293.822-127.666,293.641-127.519L293.641-127.519z"/>
				<path fill="#DDDDDD" d="M290.721-124.826c1.199,1.02,0.117,2.83-0.73,3.718c-0.163,0.169,0.096,0.426,0.257,0.256
					c0.987-1.032,2.099-3.067,0.731-4.233C290.801-125.236,290.542-124.98,290.721-124.826L290.721-124.826z"/>
				<path fill="#DDDDDD" d="M287.755-124.223c-1.096,0.545-1.688,1.623-1.631,2.836c0.01,0.233,0.376,0.234,0.365,0
					c-0.051-1.096,0.46-2.029,1.452-2.52C288.152-124.012,287.966-124.325,287.755-124.223L287.755-124.223z"/>
				<path fill="#DDDDDD" d="M292.883-119.186c0.597,1.096-2.839,2.233-3.575,2.32c-0.231,0.029-0.232,0.395,0,0.365
					c1.002-0.118,4.732-1.326,3.889-2.869C293.086-119.575,292.771-119.393,292.883-119.186L292.883-119.186z"/>
				<path fill="#DDDDDD" d="M297.746-119.338c1.424-0.168,1.928,1.774,1.088,2.689c-0.161,0.174,0.099,0.432,0.257,0.258
					c1.036-1.125,0.415-3.521-1.345-3.313C297.516-119.675,297.512-119.311,297.746-119.338L297.746-119.338z"/>
				<path fill="#DDDDDD" d="M301.076-120.322c0.361,0.742,0.634,1.523,0.875,2.311c0.067,0.225,0.42,0.129,0.352-0.097
					c-0.249-0.819-0.537-1.629-0.911-2.396C301.288-120.717,300.974-120.531,301.076-120.322L301.076-120.322z"/>
				<path fill="#DDDDDD" d="M304.43-113.367c-1.2,0.484-1.347,1.785-1.35,2.933c-0.001,0.236,0.364,0.236,0.365,0
					c0.004-0.946,0.064-2.168,1.082-2.583C304.744-113.104,304.648-113.457,304.43-113.367L304.43-113.367z"/>
				<path fill="#DDDDDD" d="M305.036-110.115c1.195,0.813-0.162,2.453-1.055,2.849c-0.215,0.097-0.029,0.411,0.185,0.315
					c1.188-0.529,2.487-2.504,1.055-3.479C305.025-110.563,304.844-110.246,305.036-110.115L305.036-110.115z"/>
				<path fill="#DDDDDD" d="M304.712-105.318c-1.267,0.787-1.679,2.438-0.686,3.613c0.152,0.178,0.411-0.08,0.258-0.26
					c-0.841-0.996-0.439-2.381,0.611-3.038C305.094-105.127,304.911-105.444,304.712-105.318L304.712-105.318z"/>
				<path fill="#DDDDDD" d="M307.027-104.466c1.002,0.78,0.838,3.123-0.569,3.347c-0.232,0.037-0.133,0.389,0.097,0.354
					c1.672-0.268,1.941-3.018,0.731-3.956C307.101-104.865,306.844-104.609,307.027-104.466L307.027-104.466z"/>
				<path fill="#DDDDDD" d="M307.954-99.271c0.518,1.654-0.775,3.24-2.5,3.014c-0.232-0.029-0.231,0.334,0,0.365
					c1.958,0.258,3.434-1.613,2.854-3.477C308.237-99.592,307.883-99.496,307.954-99.271L307.954-99.271z"/>
				<path fill="#DDDDDD" d="M305.211-98.367c-1.407-0.039-2.172,1.271-2.449,2.486c-0.053,0.23,0.3,0.328,0.352,0.098
					c0.238-1.053,0.858-2.254,2.097-2.219C305.445-97.996,305.444-98.359,305.211-98.367L305.211-98.367z"/>
				<path fill="#DDDDDD" d="M278.67-96.07c-1.01,0.693-2.016-0.461-2.427-1.313c-0.103-0.213-0.417-0.027-0.316,0.184
					c0.502,1.039,1.741,2.26,2.928,1.445C279.045-95.887,278.863-96.203,278.67-96.07L278.67-96.07z"/>
				<path fill="#DDDDDD" d="M278.028-97.932c0.429-0.969,0.107-2.064-0.598-2.816c-0.162-0.172-0.418,0.088-0.257,0.258
					c0.581,0.622,0.899,1.564,0.538,2.377C277.617-97.9,277.932-97.717,278.028-97.932L278.028-97.932z"/>
				<path fill="#DDDDDD" d="M274.638-103.247c0.255-0.942,0.856-1.682,1.7-2.161c0.204-0.118,0.022-0.434-0.185-0.317
					c-0.924,0.526-1.588,1.351-1.868,2.384C274.225-103.115,274.576-103.02,274.638-103.247L274.638-103.247z"/>
				<path fill="#DDDDDD" d="M278.811-104.904c1.092-0.373,0.947-1.924,0.777-2.82c-0.043-0.231-0.396-0.133-0.352,0.096
					c0.126,0.669,0.319,2.085-0.522,2.373C278.492-105.18,278.587-104.828,278.811-104.904L278.811-104.904z"/>
				<path fill="#DDDDDD" d="M278.194-112.483c-1.21-0.045-2.066,0.839-2.449,1.921c-0.078,0.223,0.274,0.316,0.352,0.095
					c0.331-0.929,1.055-1.689,2.097-1.649C278.429-112.107,278.429-112.473,278.194-112.483L278.194-112.483z"/>
				<path fill="#DDDDDD" d="M282.83-118.625c-1.315-0.635-2.509-0.157-3.547,0.76c-0.178,0.157,0.083,0.414,0.257,0.258
					c0.901-0.797,1.946-1.262,3.104-0.701C282.856-118.207,283.042-118.521,282.83-118.625L282.83-118.625z"/>
				<path fill="#DDDDDD" d="M277.288-116.229c0.555,1.332,2.29,1.732,3.583,1.84c0.237,0.018,0.233-0.346,0-0.366
					c-1.101-0.091-2.753-0.423-3.23-1.569C277.55-116.537,277.198-116.444,277.288-116.229L277.288-116.229z"/>
				<path fill="#DDDDDD" d="M283.292-120.175c1.459,0.641,2.065,2.403,1.94,3.9c-0.021,0.233,0.345,0.231,0.363,0
					c0.135-1.614-0.551-3.528-2.118-4.214C283.266-120.584,283.078-120.27,283.292-120.175L283.292-120.175z"/>
				<path d="M280.789-116.396v24.65c3.96,0.734,8.18,0.953,10.63,0.953c2.617,0,7.323-0.248,11.58-1.104v-24.5H280.789z"/>
				<path fill-rule="evenodd" clip-rule="evenodd" fill="#282828" d="M281.933-115.164l0.137,22.059c0,0,7.505,1.959,19.176-0.57
					c0.082,0.406-15.015,1.143-17.954-1.307C283.129-95.064,283.429-97.402,281.933-115.164z"/>
			</g>
			<g>
				<polygon fill="#FFE3C3" points="192.376,-105.824 191.335,-103.787 254.167,-70.727 255.986,-74.279 				"/>
				<polygon fill="#D3AB84" points="254.167,-70.727 275.874,-59.306 277.959,-63.384 255.986,-74.279 				"/>
			</g>
			<g>
				<polygon fill="#FFE3C3" points="199.498,-114.6 198.456,-112.558 261.289,-79.499 263.103,-83.054 				"/>
				<polygon fill="#D3AB84" points="261.289,-79.499 282.993,-68.077 285.078,-72.157 263.103,-83.054 				"/>
			</g>
		</g>
		<g>
			<polygon fill-rule="evenodd" clip-rule="evenodd" fill="#CFD9DB" points="545.488,0 323.339,0 323.339,-144.118 
				545.488,-144.118 			"/>
			<g>
				<path fill="#FFFFFF" stroke="#FFFFFF" stroke-linecap="round" stroke-linejoin="round" stroke-miterlimit="10" d="
					M343.961-114.866c0.181-2.043,2.134-7.148,4.958-6.193c0.719,0.191,3.159-5.263,6.652-2.681c0.526,0.097,1.82-3.684,5.457-1.532
					c0.383-0.142,2.773-3.541,5.455,1.055c0.718,0.192,5.264-2.728,8.231,3.397c0.479,0.19,4.786,0.765,5.36,5.599
					c0.047-0.141,2.644-2.785,3.6,0.42c0.048,0.287-1.351,7.91-18.867,7.91C364.953-106.845,343.248-106.858,343.961-114.866z"/>
				<path fill="#E86D27" d="M384.52-113.36c0-0.333-0.011-0.67-0.033-1.036c-0.017-0.295-0.256-0.529-0.55-0.539
					c-0.008-0.002-0.016-0.002-0.024-0.002c-0.283,0-0.527,0.209-0.567,0.494c-0.534,3.805-9.28,6.902-19.5,6.902
					c-10.218,0-18.965-3.096-19.498-6.902c-0.041-0.285-0.282-0.494-0.568-0.494c-0.008,0-0.017,0-0.022,0.002
					c-0.296,0.009-0.533,0.244-0.552,0.539c-0.022,0.371-0.033,0.709-0.033,1.036c0,7.593,5.053,14.138,12.279,17.048
					c-1.979,0.79-3.186,1.86-3.186,3.059c0,2.469,5.088,4.402,11.58,4.402c6.494,0,11.582-1.934,11.582-4.402
					c0-1.199-1.207-2.269-3.187-3.059C379.468-99.222,384.52-105.767,384.52-113.36z"/>
				<path fill="#DDDDDD" d="M377.696-116.937c-0.977-0.494-2.156-0.246-2.846,0.607c-0.174,0.215,0.13,0.52,0.304,0.305
					c0.565-0.697,1.511-0.953,2.323-0.541C377.727-116.44,377.943-116.813,377.696-116.937L377.696-116.937z"/>
				<path fill="#DDDDDD" d="M375.752-113.841c-0.43,1.07-2.514,1.286-3.147,0.33c-0.153-0.228-0.527-0.014-0.372,0.217
					c0.854,1.289,3.362,0.988,3.935-0.434C376.271-113.985,375.854-114.095,375.752-113.841L375.752-113.841z"/>
				<path fill="#DDDDDD" d="M373.783-117.612c-0.085-1.746-2.565-2.191-3.624-1.016c-0.185,0.209,0.12,0.514,0.307,0.307
					c0.787-0.879,2.82-0.675,2.886,0.709C373.365-117.337,373.794-117.337,373.783-117.612L373.783-117.612z"/>
				<path fill="#DDDDDD" d="M373.101-122.106c-1.115-0.569-2.319-0.693-3.555-0.699c-0.277-0.001-0.277,0.429,0,0.43
					c1.154,0.006,2.293,0.109,3.336,0.642C373.13-121.609,373.349-121.98,373.101-122.106L373.101-122.106z"/>
				<path fill="#DDDDDD" d="M366.253-123.317c-1.134-1.15-3.109-0.887-3.785,0.618c-0.111,0.251,0.26,0.471,0.371,0.218
					c0.563-1.251,2.154-1.502,3.109-0.532C366.144-122.815,366.447-123.12,366.253-123.317L366.253-123.317z"/>
				<path fill="#DDDDDD" d="M365.606-120.812c0.133,0.985-0.874,1.895-1.804,1.932c-0.275,0.01-0.275,0.439,0,0.43
					c1.24-0.046,2.392-1.209,2.221-2.475C365.984-121.2,365.569-121.083,365.606-120.812L365.606-120.812z"/>
				<path fill="#DDDDDD" d="M367.02-117.054c-1.004-0.217-2.307-0.229-2.563,1.01c-0.056,0.271,0.358,0.386,0.415,0.115
					c0.203-0.98,1.264-0.875,2.032-0.71C367.176-116.581,367.292-116.999,367.02-117.054L367.02-117.054z"/>
				<path fill="#DDDDDD" d="M367.447-113.579c0.538,0.756-0.211,1.396-0.963,1.495c-0.271,0.035-0.275,0.467,0,0.43
					c1.043-0.135,2.085-1.088,1.334-2.143C367.659-114.021,367.285-113.805,367.447-113.579L367.447-113.579z"/>
				<path fill="#DDDDDD" d="M368.117-110.063c-0.402,0.898-1.378,1.207-2.304,1.137c-0.275-0.022-0.274,0.41,0,0.43
					c1.063,0.082,2.219-0.323,2.676-1.35C368.6-110.097,368.229-110.317,368.117-110.063L368.117-110.063z"/>
				<path fill="#DDDDDD" d="M362.839-112.267c-0.806-1.461-2.499-0.412-2.881,0.816c-0.082,0.268,0.334,0.379,0.416,0.116
					c0.27-0.867,1.482-1.825,2.094-0.713C362.604-111.805,362.976-112.022,362.839-112.267L362.839-112.267z"/>
				<path fill="#DDDDDD" d="M361.641-109.78c-1.115,0.337-2.152,0.144-3.045-0.613c-0.211-0.18-0.517,0.121-0.305,0.305
					c1.008,0.854,2.194,1.107,3.465,0.725C362.02-109.444,361.907-109.862,361.641-109.78L361.641-109.78z"/>
				<path fill="#DDDDDD" d="M361.136-114.458c0.087-0.055,0.179-0.074,0.275-0.066c0.117-0.004,0.215-0.1,0.215-0.218
					c0-0.555-0.682-0.68-1.146-0.766c-0.621-0.113-1.248,0.037-1.762,0.391c-0.229,0.156-0.014,0.529,0.218,0.371
					c0.737-0.508,1.612-0.441,2.365,0c-0.035-0.063-0.07-0.124-0.104-0.186c0,0.065,0,0.127,0,0.19
					c0.07-0.07,0.142-0.143,0.215-0.215c-0.186,0.004-0.337,0.025-0.492,0.125C360.686-114.68,360.903-114.309,361.136-114.458
					L361.136-114.458z"/>
				<path fill="#DDDDDD" d="M360.319-118.913c-0.656-0.822-2.011-0.891-2.846-0.32c-0.227,0.153-0.012,0.529,0.218,0.371
					c0.69-0.471,1.779-0.428,2.323,0.254C360.188-118.392,360.49-118.698,360.319-118.913L360.319-118.913z"/>
				<path fill="#DDDDDD" d="M359.745-123.563c-1.137-0.264-2.208,0.17-2.983,1.012c-0.188,0.204,0.115,0.509,0.304,0.306
					c0.669-0.73,1.575-1.135,2.565-0.904C359.901-123.084,360.015-123.5,359.745-123.563L359.745-123.563z"/>
				<path fill="#DDDDDD" d="M353.562-122.805c-1.4,0.074-1.591,1.925-1.047,2.908c0.134,0.242,0.506,0.025,0.371-0.217
					c-0.373-0.676-0.373-2.206,0.676-2.262C353.838-122.389,353.839-122.821,353.562-122.805L353.562-122.805z"/>
				<path fill="#DDDDDD" d="M354.424-119.503c1.323-0.015,0.484,2.525-0.345,2.831c-0.259,0.096-0.147,0.511,0.114,0.416
					c1.257-0.46,2.146-3.699,0.23-3.677C354.146-119.93,354.146-119.5,354.424-119.503L354.424-119.503z"/>
				<path fill="#DDDDDD" d="M354.846-114.397c0.856,0.925-0.801,1.65-1.489,1.959c-0.252,0.113-0.033,0.484,0.219,0.371
					c0.999-0.447,2.707-1.412,1.574-2.634C354.961-114.907,354.657-114.601,354.846-114.397L354.846-114.397z"/>
				<path fill="#DDDDDD" d="M351.304-114.375c-1.625,0.242-2.516,1.558-1.97,3.137c0.091,0.261,0.506,0.148,0.415-0.114
					c-0.476-1.375,0.272-2.398,1.669-2.607C351.691-114,351.576-114.415,351.304-114.375L351.304-114.375z"/>
				<path fill="#DDDDDD" d="M346.877-114.8c-0.142-0.472-0.009-0.873,0.328-1.225c0.193-0.201-0.11-0.505-0.304-0.305
					c-0.44,0.461-0.626,1.024-0.439,1.646C346.543-114.418,346.958-114.532,346.877-114.8L346.877-114.8z"/>
				<path fill="#DDDDDD" d="M348.573-118.671c0.997,0.461,1.116,1.491,0.762,2.438c-0.098,0.26,0.318,0.371,0.415,0.113
					c0.418-1.117,0.199-2.387-0.961-2.923C348.54-119.159,348.319-118.786,348.573-118.671L348.573-118.671z"/>
				<path fill="#DDDDDD" d="M349.806-120.388c0,0.223,0,0.445,0,0.67c0,0.277,0.43,0.277,0.43,0c0-0.225,0-0.448,0-0.67
					C350.236-120.667,349.806-120.667,349.806-120.388L349.806-120.388z"/>
				<path fill="#DDDDDD" d="M374.511-110.716c-0.644,0.432-1.382,0.532-2.131,0.36c-0.271-0.059-0.387,0.355-0.116,0.418
					c0.856,0.193,1.727,0.089,2.466-0.407C374.957-110.497,374.742-110.87,374.511-110.716L374.511-110.716z"/>
				<path fill="#DDDDDD" d="M370.874-116.172c-0.856,0.443-1.585,1.123-1.918,2.044c-0.094,0.262,0.321,0.371,0.417,0.115
					c0.294-0.816,0.967-1.4,1.72-1.787C371.339-115.929,371.121-116.3,370.874-116.172L370.874-116.172z"/>
				<path fill="#F9AA82" d="M344.661-111.342c0,0,1.099,12.25,15.361,14.642C359.975-96.842,348.392-99.763,344.661-111.342z"/>
			</g>
			<g>
				<polygon fill="#FFE3C3" points="407.937,-105.824 406.895,-103.787 469.727,-70.727 471.545,-74.279 				"/>
			</g>
			<g>
				<polygon fill="#FFE3C3" points="415.058,-114.6 414.015,-112.558 476.849,-79.499 478.663,-83.054 				"/>
			</g>
		</g>
	</g>
</pattern>
<rect x="0" fill="url(#Motivo_nuevo_16)" width="800" height="800"/>
</svg>
