<?xml version="1.0" encoding="iso-8859-1"?>
<!-- Generator: Adobe Illustrator 19.0.0, SVG Export Plug-In . SVG Version: 6.00 Build 0)  -->
<svg xmlns="http://www.w3.org/2000/svg" xmlns:xlink="http://www.w3.org/1999/xlink" version="1.1" id="Capa_1" x="0px" y="0px" viewBox="0 0 429.056 429.056" style="enable-background:new 0 0 429.056 429.056;" xml:space="preserve" width="512px" height="512px">
<g>
	<g>
		<path d="M404.697,12.288c-2.56-0.512-5.12,1.536-5.632,4.608l-18.432,174.592L355.545,10.24c-0.512-2.56-3.072-4.608-5.632-4.608    c-2.56,0.512-4.608,3.072-4.608,5.632l30.72,222.208L357.081,409.6c-0.512,2.56,1.536,5.12,4.608,5.632h0.512    c2.56,0,4.608-2.048,5.12-4.608l14.336-135.168l16.384,120.832c0.512,2.56,2.56,4.608,5.12,4.608h0.512    c2.56-0.512,4.608-3.072,4.608-5.632l-22.016-161.28l23.04-216.064C409.817,15.36,407.769,12.8,404.697,12.288z" fill="#FFFFFF"/>
	</g>
</g>
<g>
	<g>
		<path d="M272.601,31.744h-54.272c-18.944,0-34.304,15.36-34.304,34.304v54.272c0,18.944,15.36,33.792,34.304,33.792h54.272    c18.944,0,34.304-15.36,34.304-34.304v-53.76C306.905,47.104,291.545,31.744,272.601,31.744z M296.665,120.32    c0,13.312-10.752,24.064-24.064,24.064h-54.272c-13.312,0-24.064-10.752-24.064-24.064V66.048    c0-13.312,10.752-24.064,24.064-24.064h54.272c13.312,0,24.064,10.752,24.064,24.064V120.32z" fill="#FFFFFF"/>
	</g>
</g>
<g>
	<g>
		<path d="M245.465,58.88c-18.944,0-34.304,15.36-34.304,34.304c0,18.944,15.36,34.304,34.304,34.304    c18.944,0,34.304-15.36,34.304-34.304C279.769,74.24,264.409,58.88,245.465,58.88z M245.465,69.12    c5.12-0.512,9.728,1.024,13.824,4.096h-27.136C236.249,70.656,240.857,69.12,245.465,69.12z M223.449,83.456h44.032    c0.512,1.536,1.024,3.072,1.536,4.608h-47.104C222.425,86.528,222.937,84.992,223.449,83.456z M245.977,117.248    c-5.632,0-10.24-1.536-13.824-4.096h27.136C255.193,115.712,250.585,117.248,245.977,117.248z M267.481,102.912h-44.032    c-0.512-1.536-1.024-3.072-1.536-4.608h47.104C268.505,99.84,267.993,101.376,267.481,102.912z" fill="#FFFFFF"/>
	</g>
</g>
<g>
	<g>
		<path d="M134.361,31.232H79.065c-18.944,0-34.304,15.36-34.304,34.304v55.296c0,18.944,15.36,34.304,34.304,34.304h55.296    c18.944,0,34.304-15.36,34.304-34.304V65.536C168.665,46.592,153.305,31.232,134.361,31.232z M158.937,79.872h-7.68    c-3.072,0-5.12,2.048-5.12,5.12s2.048,5.12,5.12,5.12h7.68v30.208c0,13.312-10.752,24.064-24.064,24.064v-8.704    c0-3.072-2.048-5.12-5.12-5.12c-3.072,0-5.12,2.048-5.12,5.12v8.704H79.065c-9.728,0-17.92-5.632-21.504-13.312    c1.024,1.024,2.048,1.536,3.584,1.536c1.536,0,2.56-0.512,3.584-1.536l6.656-6.656c2.048-2.048,2.048-5.12,0-7.168    c-2.048-2.048-5.12-2.048-7.168,0l-6.656,6.656c-1.024,1.024-1.536,2.048-1.536,3.072c-0.512-2.048-1.024-4.096-1.024-6.656    V65.536c0-5.12,1.536-10.24,4.608-13.824l4.608,4.608c1.024,1.024,2.56,1.536,3.584,1.536c1.536,0,2.56-0.512,3.584-1.536    c2.048-2.048,2.048-5.12,0-7.168l-4.096-4.096c3.584-2.048,7.68-3.584,12.288-3.584h27.136v4.096c0,3.072,2.048,5.12,5.12,5.12    s5.12-2.048,5.12-5.12v-4.096h17.92c13.312,0,24.064,10.752,24.064,24.064V79.872z" fill="#FFFFFF"/>
	</g>
</g>
<g>
	<g>
		<path d="M134.873,64.512c-7.68-7.68-17.408-11.776-28.16-11.776c-4.096,0-8.192,0.512-11.776,2.048l-6.144-6.144    c-2.048-2.048-5.12-2.048-7.168,0s-2.048,5.12,0,7.168l3.584,3.584c-2.048,1.536-4.608,3.072-6.144,5.12    c-8.192,8.192-12.288,18.944-11.776,29.696h-4.096c-3.072,0-5.12,2.048-5.12,5.12s2.048,5.12,5.12,5.12h5.632    c2.048,6.144,5.12,11.776,9.728,16.896c1.536,1.536,3.072,3.072,4.608,4.096l-5.12,5.12c-2.048,2.048-2.048,5.12,0,7.168    c1.024,1.024,2.56,1.536,3.584,1.536c1.536,0,2.56-0.512,3.584-1.536l6.656-6.656c0.512-0.512,0.512-0.512,0.512-1.024    c4.608,1.536,9.216,2.56,14.336,2.56c10.24,0,20.48-4.096,28.16-11.776s11.776-17.408,11.776-28.16S142.553,72.192,134.873,64.512    z M127.705,114.176c-11.776,11.776-30.208,11.776-41.984,0c-11.264-11.776-11.264-30.72,0-41.984    c5.632-5.632,12.8-8.704,20.992-8.704c7.68,0,15.36,3.072,20.992,8.704c5.632,5.632,8.704,12.8,8.704,20.992    C136.409,100.864,133.337,108.544,127.705,114.176z" fill="#FFFFFF"/>
	</g>
</g>
<g>
	<g>
		<path d="M135.385,44.032h-9.216c-3.072,0-5.12,2.048-5.12,5.12c0,2.56,2.048,5.12,5.12,5.12h9.216c3.072,0,5.12-2.048,5.12-5.12    C140.505,46.08,138.457,44.032,135.385,44.032z" fill="#FFFFFF"/>
	</g>
</g>
<g>
	<g>
		<path d="M111.321,133.632h-9.216c-3.072,0-5.12,2.048-5.12,5.12c0,3.072,2.048,5.12,5.12,5.12h9.216c3.072,0,5.12-2.048,5.12-5.12    C116.441,135.68,114.393,133.632,111.321,133.632z" fill="#FFFFFF"/>
	</g>
</g>
<g>
	<g>
		<path d="M152.281,96.256c-3.072,0-5.12,2.048-5.12,5.12v9.216c0,2.56,2.56,5.12,5.12,5.12c3.072,0,5.12-2.048,5.12-5.12v-9.216    C157.401,98.304,155.353,96.256,152.281,96.256z" fill="#FFFFFF"/>
	</g>
</g>
<g>
	<g>
		<path d="M71.385,67.584l-6.656-6.656c-2.048-2.048-5.12-2.048-7.168,0c-2.048,2.048-2.048,5.12,0,7.168l6.656,6.656    c1.024,1.024,2.56,1.536,3.584,1.536c1.536,0,2.56-0.512,3.584-1.536C73.433,72.704,73.433,69.632,71.385,67.584z" fill="#FFFFFF"/>
	</g>
</g>
<g>
	<g>
		<path d="M154.841,64.512l-6.656-6.656c-2.048-2.048-5.12-2.048-7.168,0c-2.048,1.536-2.048,5.12,0,7.168l6.656,6.656    c1.024,1.024,2.56,1.536,3.584,1.536c1.536,0,2.56-0.512,3.584-1.536C156.889,69.632,156.889,66.56,154.841,64.512z" fill="#FFFFFF"/>
	</g>
</g>
<g>
	<g>
		<path d="M151.257,127.488l-6.656-6.656c-2.048-2.048-5.12-2.048-7.168,0c-2.048,2.048-2.048,5.12,0,7.168l6.656,6.656    c1.024,1.024,2.56,1.536,3.584,1.536c1.536,0,2.56-0.512,3.584-1.536C153.305,132.608,153.305,129.536,151.257,127.488z" fill="#FFFFFF"/>
	</g>
</g>
<g>
	<g>
		<path d="M276.185,164.352h-47.616c-16.896,0-30.72,13.824-30.72,30.72v47.616c0,16.896,13.824,30.72,30.72,30.72h47.616    c16.896,0,30.72-13.824,30.72-30.72v-47.616C306.905,177.664,293.081,164.352,276.185,164.352z M296.665,242.688    c0,11.264-9.216,20.48-20.48,20.48h-47.616c-11.264,0-20.48-9.216-20.48-20.48v-47.616c0-11.264,9.216-20.48,20.48-20.48h47.616    c11.264,0,20.48,9.216,20.48,20.48V242.688z" fill="#FFFFFF"/>
	</g>
</g>
<g>
	<g>
		<path d="M252.121,187.904c-16.896,0-30.72,13.824-30.72,30.72s13.824,30.72,30.72,30.72s30.72-13.824,30.72-30.72    C283.353,201.728,269.529,187.904,252.121,187.904z M247.001,238.592c-8.704-2.048-15.36-10.24-15.36-19.968    c0-9.728,6.656-17.408,15.36-19.968V238.592z M257.241,238.592v-39.936c8.704,2.048,15.36,10.24,15.36,19.968    S266.457,236.544,257.241,238.592z" fill="#FFFFFF"/>
	</g>
</g>
<g>
	<g>
		<path d="M276.185,284.16h-47.616c-16.896,0-30.72,13.824-30.72,30.72v47.616c0,16.896,13.824,30.72,30.72,30.72h47.616    c16.896,0,30.72-13.824,30.72-30.72V314.88C306.905,297.984,293.081,284.16,276.185,284.16z M296.665,363.008    c0,11.264-9.216,20.48-20.48,20.48h-47.616c-11.264,0-20.48-9.216-20.48-20.48v-47.616c0-11.264,9.216-20.48,20.48-20.48h47.616    c11.264,0,20.48,9.216,20.48,20.48V363.008z" fill="#FFFFFF"/>
	</g>
</g>
<g>
	<g>
		<path d="M252.121,308.224c-16.896,0-30.72,13.824-30.72,30.72s13.824,30.72,30.72,30.72s30.72-13.824,30.72-30.72    C283.353,322.048,269.529,308.224,252.121,308.224z M247.001,358.912c-8.704-2.56-15.36-10.24-15.36-19.968    c0-9.728,6.656-17.408,15.36-19.968V358.912z M257.241,358.912v-39.936c8.704,2.048,15.36,10.24,15.36,19.968    C273.113,348.672,266.457,356.352,257.241,358.912z" fill="#FFFFFF"/>
	</g>
</g>
<g>
	<g>
		<path d="M154.329,172.544c-18.432-0.512-33.792,14.848-33.792,33.792c0,18.944,15.36,33.792,33.792,33.792    c18.944,0,33.792-15.36,33.792-33.792C188.121,187.392,172.761,172.544,154.329,172.544z M154.841,229.888    c-13.312,0-23.552-10.752-23.552-23.552c0-13.312,10.752-23.552,23.552-23.552c12.8-0.512,23.552,10.24,23.552,23.552    S167.641,229.888,154.841,229.888z" fill="#FFFFFF"/>
	</g>
</g>
<g>
	<g>
		<path d="M154.329,191.488c-8.192,0-14.848,6.144-14.848,14.848c0,8.192,6.656,14.848,14.848,14.848s14.848-6.656,14.848-14.848    C169.177,198.144,162.521,191.488,154.329,191.488z M154.841,210.944c-2.56,0-4.608-2.048-4.608-4.608s2.048-4.608,4.608-4.608    c2.56-0.512,4.608,1.536,4.608,4.608C159.449,208.896,157.401,210.944,154.841,210.944z" fill="#FFFFFF"/>
	</g>
</g>
<g>
	<g>
		<path d="M154.841,248.832c-18.944,0-33.792,15.36-33.792,33.792c0,18.944,15.36,33.792,33.792,33.792    c18.944,0,33.792-15.36,33.792-33.792S173.273,248.832,154.841,248.832z M154.841,306.688c-13.312,0-23.552-10.752-23.552-23.552    c0-13.312,10.752-23.552,23.552-23.552c13.312,0,23.552,10.752,23.552,23.552C178.393,295.936,167.641,306.688,154.841,306.688z" fill="#FFFFFF"/>
	</g>
</g>
<g>
	<g>
		<path d="M154.841,267.776c-8.192,0-14.848,6.656-14.848,14.848s6.656,14.848,14.848,14.848s14.848-6.656,14.848-14.848    S163.033,267.776,154.841,267.776z M154.841,287.744c-2.56,0-4.608-2.048-4.608-4.608s2.048-4.608,4.608-4.608    s4.608,2.048,4.608,4.608S157.401,287.744,154.841,287.744z" fill="#FFFFFF"/>
	</g>
</g>
<g>
	<g>
		<path d="M154.841,325.632c-18.944,0-33.792,15.36-33.792,33.792c0,18.944,15.36,33.792,33.792,33.792    c18.944,0,33.792-15.36,33.792-33.792C188.633,340.992,173.273,325.632,154.841,325.632z M154.841,383.488    c-13.312,0-23.552-10.752-23.552-23.552c0-13.312,10.752-23.552,23.552-23.552c13.312,0,23.552,10.752,23.552,23.552    C178.393,372.736,167.641,383.488,154.841,383.488z" fill="#FFFFFF"/>
	</g>
</g>
<g>
	<g>
		<path d="M154.841,344.576c-8.192,0-14.848,6.656-14.848,14.848c0,8.192,6.656,14.848,14.848,14.848s14.848-6.656,14.848-14.848    S163.033,344.576,154.841,344.576z M154.841,364.544c-2.56,0-4.608-2.048-4.608-4.608s2.048-4.608,4.608-4.608    s4.608,2.048,4.608,4.608S157.401,364.544,154.841,364.544z" fill="#FFFFFF"/>
	</g>
</g>
<g>
	<g>
		<path d="M78.041,172.544c-18.944,0-33.792,15.36-33.792,33.792c-0.512,18.432,14.848,33.792,33.792,33.792    c18.944,0,33.792-15.36,33.792-33.792C111.833,187.392,96.473,172.544,78.041,172.544z M78.041,229.376    c-13.312,0-23.552-10.752-23.552-23.552c-0.512-12.8,10.24-23.552,23.552-23.552c13.312,0,23.552,10.752,23.552,23.552    C101.593,219.136,90.841,229.376,78.041,229.376z" fill="#FFFFFF"/>
	</g>
</g>
<g>
	<g>
		<path d="M78.041,191.488c-8.192,0-14.848,6.656-14.848,14.848c-0.512,8.192,6.656,14.848,14.848,14.848    c8.192,0,14.848-6.656,14.848-14.848S86.233,191.488,78.041,191.488z M78.041,210.432c-2.56,0-4.608-2.048-4.608-4.608    c-0.512-2.56,2.048-4.608,4.608-4.608s4.608,2.048,4.608,4.608S80.601,210.432,78.041,210.432z" fill="#FFFFFF"/>
	</g>
</g>
<g>
	<g>
		<path d="M78.041,249.344c-18.944,0-33.792,15.36-33.792,33.792c-0.512,18.432,14.848,33.792,33.792,33.792    c18.944,0,33.792-15.36,33.792-33.792C111.833,264.192,96.473,249.344,78.041,249.344z M78.041,306.176    c-13.312,0-23.552-10.752-23.552-23.552c-0.512-12.8,10.24-23.552,23.552-23.552c13.312,0,23.552,10.752,23.552,23.552    C101.593,295.936,90.841,306.176,78.041,306.176z" fill="#FFFFFF"/>
	</g>
</g>
<g>
	<g>
		<path d="M78.041,268.288c-8.192,0-14.848,6.656-14.848,14.848c-0.512,8.192,6.656,14.848,14.848,14.848    c8.192,0,14.848-6.656,14.848-14.848C92.889,274.944,86.233,268.288,78.041,268.288z M78.041,287.232    c-2.56,0-4.608-2.048-4.608-4.608c-0.512-2.56,2.048-4.608,4.608-4.608s4.608,2.048,4.608,4.608S80.601,287.232,78.041,287.232z" fill="#FFFFFF"/>
	</g>
</g>
<g>
	<g>
		<path d="M78.041,326.144c-18.944,0-33.792,15.36-33.792,33.792c-0.512,18.432,14.848,33.792,33.792,33.792    c18.944,0,33.792-15.36,33.792-33.792C111.833,340.992,96.473,326.144,78.041,326.144z M78.041,382.976    c-13.312,0-23.552-10.752-23.552-23.552c-0.512-12.8,10.24-23.552,23.552-23.552c13.312,0,23.552,10.752,23.552,23.552    C101.593,372.736,90.841,382.976,78.041,382.976z" fill="#FFFFFF"/>
	</g>
</g>
<g>
	<g>
		<path d="M78.041,345.088c-8.192,0-14.848,6.656-14.848,14.848c-0.512,8.192,6.656,14.848,14.848,14.848    c8.192,0,14.848-6.656,14.848-14.848C92.889,351.744,86.233,345.088,78.041,345.088z M78.041,364.032    c-2.56,0-4.608-2.048-4.608-4.608c-0.512-2.048,2.048-4.608,4.608-4.608s4.608,2.048,4.608,4.608S80.601,364.032,78.041,364.032z" fill="#FFFFFF"/>
	</g>
</g>
<g>
	<g>
		<path d="M324.825,0H24.793c-3.072,0-5.12,2.048-5.12,5.12v418.816c0,3.072,2.048,5.12,5.12,5.12h300.032    c3.072,0,5.12-2.048,5.12-5.12V5.12C329.945,2.048,327.897,0,324.825,0z M319.705,418.304H29.913V10.24h289.792V418.304z" fill="#FFFFFF"/>
	</g>
</g>
<g>
</g>
<g>
</g>
<g>
</g>
<g>
</g>
<g>
</g>
<g>
</g>
<g>
</g>
<g>
</g>
<g>
</g>
<g>
</g>
<g>
</g>
<g>
</g>
<g>
</g>
<g>
</g>
<g>
</g>
</svg>
