<?xml version="1.0" encoding="iso-8859-1"?>
<!-- Generator: Adobe Illustrator 19.0.0, SVG Export Plug-In . SVG Version: 6.00 Build 0)  -->
<svg xmlns="http://www.w3.org/2000/svg" xmlns:xlink="http://www.w3.org/1999/xlink" version="1.1" id="Layer_1" x="0px" y="0px" viewBox="0 0 512 512" style="enable-background:new 0 0 512 512;" xml:space="preserve" width="512px" height="512px">
<g>
	<g>
		<g>
			<path d="M256,384c-4.719,0-8.533,3.823-8.533,8.533v8.533c0,4.71,3.814,8.533,8.533,8.533c4.719,0,8.533-3.823,8.533-8.533     v-8.533C264.533,387.823,260.719,384,256,384z" fill="#FFFFFF"/>
			<path d="M170.667,298.667h-8.533c-4.719,0-8.533,3.823-8.533,8.533s3.814,8.533,8.533,8.533h8.533     c4.719,0,8.533-3.823,8.533-8.533S175.386,298.667,170.667,298.667z" fill="#FFFFFF"/>
			<path d="M71.646,58.01c1.459,1.101,35.678,26.402,116.087,39.117v13.807c0,4.71,3.814,8.533,8.533,8.533s8.533-3.823,8.533-8.533     V89.788c0-4.25-3.115-7.842-7.313-8.448C116.753,69.751,82.261,44.629,81.92,44.373C66.475,32.785,58.778,23.347,54.938,17.067     h402.074c-3.874,6.366-11.674,15.863-27.281,27.58c-0.478,0.401-50.244,40.687-173.73,40.687c-8.636,0-17.203-0.239-25.463-0.717     c-4.634-0.273-8.747,3.328-9.011,8.03c-0.273,4.71,3.328,8.738,8.021,9.011c8.593,0.495,17.493,0.742,26.453,0.742     c18.697,0,35.618-0.964,51.2-2.492v11.025c0,4.71,3.814,8.533,8.533,8.533s8.533-3.823,8.533-8.533V97.946     C404.48,86.963,438.844,59.273,440.32,58.027c35.738-26.803,37.547-45.935,37.547-49.493c0-4.71-3.814-8.533-8.533-8.533H42.667     c-4.719,0-8.533,3.823-8.533,8.533C34.133,12.092,35.942,31.223,71.646,58.01z" fill="#FFFFFF"/>
			<path d="M264.533,283.17v-69.837c0-4.71-3.814-8.533-8.533-8.533c-4.719,0-8.533,3.823-8.533,8.533v69.837     c-9.907,3.541-17.067,12.92-17.067,24.03c0,14.114,11.486,25.6,25.6,25.6c14.114,0,25.6-11.486,25.6-25.6     C281.6,296.09,274.441,286.711,264.533,283.17z M256,315.733c-4.71,0-8.533-3.831-8.533-8.533s3.823-8.533,8.533-8.533     c4.71,0,8.533,3.831,8.533,8.533S260.71,315.733,256,315.733z" fill="#FFFFFF"/>
			<path d="M332.8,307.2c0,4.71,3.814,8.533,8.533,8.533h8.533c4.719,0,8.533-3.823,8.533-8.533s-3.814-8.533-8.533-8.533h-8.533     C336.614,298.667,332.8,302.49,332.8,307.2z" fill="#FFFFFF"/>
			<path d="M443.733,178.603c-0.324-23.253-19.345-42.069-42.667-42.069H110.933c-23.322,0-42.342,18.816-42.667,42.069     L34.21,434.074c-0.051,0.375-0.077,0.751-0.077,1.126c0,23.526,19.14,42.667,42.667,42.667h8.533v25.6     c0,4.71,3.814,8.533,8.533,8.533h324.267c4.719,0,8.533-3.823,8.533-8.533v-25.6h8.533c23.526,0,42.667-19.14,42.667-42.667     c0-0.375-0.026-0.751-0.077-1.126L443.733,178.603z M435.2,460.8h-17.067c-4.719,0-8.533,3.823-8.533,8.533v25.6H102.4v-17.067     H384c4.719,0,8.533-3.823,8.533-8.533S388.719,460.8,384,460.8H76.8c-13.943,0-25.318-11.204-25.591-25.071l34.048-255.403     c0.051-0.375,0.077-0.751,0.077-1.126c0-14.114,11.486-25.6,25.6-25.6h290.133c14.114,0,25.6,11.486,25.6,25.6     c0,0.375,0.026,0.751,0.077,1.126l34.048,255.403C460.518,449.596,449.143,460.8,435.2,460.8z" fill="#FFFFFF"/>
			<path d="M256,170.667c-75.281,0-136.533,61.252-136.533,136.533S180.719,443.733,256,443.733S392.533,382.481,392.533,307.2     S331.281,170.667,256,170.667z M256,426.667c-65.877,0-119.467-53.589-119.467-119.467S190.123,187.733,256,187.733     S375.467,241.323,375.467,307.2S321.877,426.667,256,426.667z" fill="#FFFFFF"/>
		</g>
	</g>
</g>
<g>
</g>
<g>
</g>
<g>
</g>
<g>
</g>
<g>
</g>
<g>
</g>
<g>
</g>
<g>
</g>
<g>
</g>
<g>
</g>
<g>
</g>
<g>
</g>
<g>
</g>
<g>
</g>
<g>
</g>
</svg>
